<svg width="13" height="24" viewBox="0 0 13 24" fill="none" xmlns="http://www.w3.org/2000/svg">
<path d="M0.745052 11.8675C0.745052 11.5897 0.789845 11.3203 0.879428 11.0592C0.969011 10.7981 1.08846 10.5814 1.23776 10.4092L9.47943 0.825846C9.8079 0.443901 10.226 0.25293 10.7336 0.25293C11.2412 0.25293 11.6593 0.443901 11.9878 0.825846C12.3162 1.20779 12.4805 1.6939 12.4805 2.28418C12.4805 2.87446 12.3162 3.36057 11.9878 3.74251L5.00026 11.8675L11.9878 19.9925C12.3162 20.3745 12.4805 20.8606 12.4805 21.4508C12.4805 22.0411 12.3162 22.5272 11.9878 22.9092C11.6593 23.2911 11.2412 23.4821 10.7336 23.4821C10.226 23.4821 9.8079 23.2911 9.47943 22.9092L1.23776 13.3258C1.05859 13.1175 0.931386 12.8918 0.856135 12.6488C0.780886 12.4057 0.743857 12.1453 0.745052 11.8675Z" fill="white"/>
</svg>
