<svg width="47" height="48" viewBox="0 0 47 48" fill="none" xmlns="http://www.w3.org/2000/svg">
<g clip-path="url(#clip0_1509_11055)">
<path d="M23.5 46.7242C36.4787 46.7242 47 36.3766 47 23.6121C47 10.8476 36.4787 0.5 23.5 0.5C10.5213 0.5 0 10.8476 0 23.6121C0 36.3766 10.5213 46.7242 23.5 46.7242Z" fill="#CA9050"/>
<path d="M11.1457 13.1641C9.6128 13.1641 8.36914 14.3695 8.36914 15.8552C8.36914 16.7018 8.77984 17.4979 9.47976 18.0081L22.0667 27.158C22.7262 27.6345 23.6285 27.6345 24.288 27.158L36.875 18.0081C37.5749 17.4979 37.9856 16.7018 37.9856 15.8552C37.9856 14.3695 36.7419 13.1641 35.209 13.1641H11.1457ZM8.36914 19.4434V31.105C8.36914 33.0841 10.0293 34.6932 12.0712 34.6932H34.2835C36.3254 34.6932 37.9856 33.0841 37.9856 31.105V19.4434L25.3986 28.5933C24.0797 29.552 22.275 29.552 20.9561 28.5933L8.36914 19.4434Z" fill="white"/>
</g>
<defs>
<clipPath id="clip0_1509_11055">
<rect width="47" height="47" fill="white" transform="translate(0 0.5)"/>
</clipPath>
</defs>
</svg>
