<svg width="47" height="47" viewBox="0 0 47 47" fill="none" xmlns="http://www.w3.org/2000/svg">
<ellipse cx="23.5" cy="23.1121" rx="23.5" ry="23.1121" fill="#00C17C"/>
<path d="M11.1457 12.6641C9.6128 12.6641 8.36914 13.8695 8.36914 15.3552C8.36914 16.2018 8.77984 16.9979 9.47976 17.5081L22.0667 26.658C22.7262 27.1345 23.6285 27.1345 24.288 26.658L36.875 17.5081C37.5749 16.9979 37.9856 16.2018 37.9856 15.3552C37.9856 13.8695 36.7419 12.6641 35.209 12.6641H11.1457ZM8.36914 18.9434V30.605C8.36914 32.5841 10.0293 34.1932 12.0712 34.1932H34.2835C36.3254 34.1932 37.9856 32.5841 37.9856 30.605V18.9434L25.3986 28.0933C24.0797 29.052 22.275 29.052 20.9561 28.0933L8.36914 18.9434Z" fill="white"/>
</svg>
