<svg width="49" height="48" viewBox="0 0 49 48" fill="none" xmlns="http://www.w3.org/2000/svg">
<g clip-path="url(#clip0_1201_367)">
<path d="M16.6935 38.0116C16.6935 38.2069 16.4709 38.3631 16.1903 38.3631C15.8709 38.3923 15.6483 38.2362 15.6483 38.0116C15.6483 37.8164 15.8709 37.6602 16.1516 37.6602C16.4419 37.6309 16.6935 37.7871 16.6935 38.0116ZM13.6838 37.5724C13.6161 37.7676 13.8096 37.9921 14.1 38.0507C14.3516 38.1483 14.6419 38.0507 14.7 37.8555C14.758 37.6602 14.5742 37.4357 14.2838 37.3479C14.0322 37.2795 13.7516 37.3771 13.6838 37.5724ZM17.9613 37.4064C17.6806 37.4748 17.4871 37.6602 17.5161 37.8847C17.5451 38.08 17.7967 38.2069 18.0871 38.1385C18.3677 38.0702 18.5613 37.8847 18.5322 37.6895C18.5032 37.504 18.2419 37.3771 17.9613 37.4064ZM24.329 0C10.9064 0 0.638672 10.279 0.638672 23.8183C0.638672 34.6439 7.39351 43.9076 17.0419 47.168C18.2806 47.3925 18.7161 46.6214 18.7161 45.9869C18.7161 45.3816 18.6871 42.0432 18.6871 39.9932C18.6871 39.9932 11.9129 41.4575 10.4903 37.0843C10.4903 37.0843 9.38706 34.2437 7.79996 33.5115C7.79996 33.5115 5.58383 31.979 7.9548 32.0083C7.9548 32.0083 10.3645 32.2035 11.6903 34.5268C13.8096 38.2947 17.3613 37.2112 18.7451 36.5669C18.9677 35.0051 19.5967 33.9215 20.2935 33.2773C14.8838 32.672 9.42577 31.8814 9.42577 22.4907C9.42577 19.8063 10.1613 18.4592 11.7096 16.7411C11.458 16.1066 10.6354 13.4905 11.9613 10.113C13.9838 9.47851 18.6387 12.7486 18.6387 12.7486C20.5742 12.202 22.6548 11.9189 24.7161 11.9189C26.7774 11.9189 28.858 12.202 30.7935 12.7486C30.7935 12.7486 35.4483 9.46874 37.4709 10.113C38.7967 13.5003 37.9742 16.1066 37.7225 16.7411C39.2709 18.4689 40.2193 19.816 40.2193 22.4907C40.2193 31.9106 34.5193 32.6623 29.1096 33.2773C30 34.0484 30.7548 35.5127 30.7548 37.8066C30.7548 41.0963 30.7258 45.1669 30.7258 45.9673C30.7258 46.6018 31.1709 47.373 32.4 47.1485C42.0774 43.9076 48.6387 34.6439 48.6387 23.8183C48.6387 10.279 37.7516 0 24.329 0ZM10.0451 33.6677C9.91932 33.7653 9.94835 33.9899 10.1129 34.1753C10.2677 34.3315 10.4903 34.3999 10.6161 34.2729C10.7419 34.1753 10.7129 33.9508 10.5484 33.7653C10.3935 33.6092 10.1709 33.5408 10.0451 33.6677ZM8.99996 32.877C8.93222 33.0039 9.02899 33.1601 9.22254 33.2577C9.37738 33.3554 9.57093 33.3261 9.63867 33.1894C9.70642 33.0625 9.60964 32.9063 9.41609 32.8087C9.22254 32.7501 9.0677 32.7794 8.99996 32.877ZM12.1354 36.3522C11.9806 36.4791 12.0387 36.7719 12.2613 36.9574C12.4838 37.1819 12.7645 37.2112 12.8903 37.055C13.0161 36.9281 12.958 36.6353 12.7645 36.4498C12.5516 36.2253 12.2613 36.196 12.1354 36.3522ZM11.0322 34.9172C10.8774 35.0148 10.8774 35.2686 11.0322 35.4931C11.1871 35.7177 11.4483 35.8153 11.5742 35.7177C11.729 35.5908 11.729 35.337 11.5742 35.1124C11.4387 34.8879 11.1871 34.7903 11.0322 34.9172Z" fill="#0097B2"/>
</g>
<defs>
<clipPath id="clip0_1201_367">
<rect width="49" height="48" fill="white"/>
</clipPath>
</defs>
</svg>
