<svg width="49" height="49" viewBox="0 0 49 49" fill="none" xmlns="http://www.w3.org/2000/svg">
<g clip-path="url(#clip0_1509_11053)">
<path d="M16.6935 38.5116C16.6935 38.7069 16.4709 38.8631 16.1903 38.8631C15.8709 38.8923 15.6483 38.7362 15.6483 38.5116C15.6483 38.3164 15.8709 38.1602 16.1516 38.1602C16.4419 38.1309 16.6935 38.2871 16.6935 38.5116ZM13.6838 38.0724C13.6161 38.2676 13.8096 38.4921 14.1 38.5507C14.3516 38.6483 14.6419 38.5507 14.7 38.3555C14.758 38.1602 14.5742 37.9357 14.2838 37.8479C14.0322 37.7795 13.7516 37.8771 13.6838 38.0724ZM17.9613 37.9064C17.6806 37.9748 17.4871 38.1602 17.5161 38.3847C17.5451 38.58 17.7967 38.7069 18.0871 38.6385C18.3677 38.5702 18.5613 38.3847 18.5322 38.1895C18.5032 38.004 18.2419 37.8771 17.9613 37.9064ZM24.329 0.5C10.9064 0.5 0.638672 10.779 0.638672 24.3183C0.638672 35.1439 7.39351 44.4076 17.0419 47.668C18.2806 47.8925 18.7161 47.1214 18.7161 46.4869C18.7161 45.8816 18.6871 42.5432 18.6871 40.4932C18.6871 40.4932 11.9129 41.9575 10.4903 37.5843C10.4903 37.5843 9.38706 34.7437 7.79996 34.0115C7.79996 34.0115 5.58383 32.479 7.9548 32.5083C7.9548 32.5083 10.3645 32.7035 11.6903 35.0268C13.8096 38.7947 17.3613 37.7112 18.7451 37.0669C18.9677 35.5051 19.5967 34.4215 20.2935 33.7773C14.8838 33.172 9.42577 32.3814 9.42577 22.9907C9.42577 20.3063 10.1613 18.9592 11.7096 17.2411C11.458 16.6066 10.6354 13.9905 11.9613 10.613C13.9838 9.97851 18.6387 13.2486 18.6387 13.2486C20.5742 12.702 22.6548 12.4189 24.7161 12.4189C26.7774 12.4189 28.858 12.702 30.7935 13.2486C30.7935 13.2486 35.4483 9.96874 37.4709 10.613C38.7967 14.0003 37.9742 16.6066 37.7225 17.2411C39.2709 18.9689 40.2193 20.316 40.2193 22.9907C40.2193 32.4106 34.5193 33.1623 29.1096 33.7773C30 34.5484 30.7548 36.0127 30.7548 38.3066C30.7548 41.5963 30.7258 45.6669 30.7258 46.4673C30.7258 47.1018 31.1709 47.873 32.4 47.6485C42.0774 44.4076 48.6387 35.1439 48.6387 24.3183C48.6387 10.779 37.7516 0.5 24.329 0.5ZM10.0451 34.1677C9.91932 34.2653 9.94835 34.4899 10.1129 34.6753C10.2677 34.8315 10.4903 34.8999 10.6161 34.7729C10.7419 34.6753 10.7129 34.4508 10.5484 34.2653C10.3935 34.1092 10.1709 34.0408 10.0451 34.1677ZM8.99996 33.377C8.93222 33.5039 9.02899 33.6601 9.22254 33.7577C9.37738 33.8554 9.57093 33.8261 9.63867 33.6894C9.70642 33.5625 9.60964 33.4063 9.41609 33.3087C9.22254 33.2501 9.0677 33.2794 8.99996 33.377ZM12.1354 36.8522C11.9806 36.9791 12.0387 37.2719 12.2613 37.4574C12.4838 37.6819 12.7645 37.7112 12.8903 37.555C13.0161 37.4281 12.958 37.1353 12.7645 36.9498C12.5516 36.7253 12.2613 36.696 12.1354 36.8522ZM11.0322 35.4172C10.8774 35.5148 10.8774 35.7686 11.0322 35.9931C11.1871 36.2177 11.4483 36.3153 11.5742 36.2177C11.729 36.0908 11.729 35.837 11.5742 35.6124C11.4387 35.3879 11.1871 35.2903 11.0322 35.4172Z" fill="#CA9050"/>
</g>
<defs>
<clipPath id="clip0_1509_11053">
<rect width="49" height="48" fill="white" transform="translate(0 0.5)"/>
</clipPath>
</defs>
</svg>
