<svg id="Layer_1" data-name="Layer 1" xmlns="http://www.w3.org/2000/svg" xmlns:xlink="http://www.w3.org/1999/xlink" viewBox="0 0 2048 2048"><defs><style>.cls-1{fill:none;}.cls-2{fill:#eeedee;}.cls-3{fill:#13448c;}.cls-4{fill:#f95858;}.cls-5{fill:#e54848;}.cls-6{fill:#1d54b5;}.cls-7{fill:#c0dbfc;}.cls-8{fill:#ffb19e;}.cls-9{fill:#521a19;}.cls-10{fill:#4286e8;}.cls-11{fill:#fff;}.cls-12{fill:#3070ce;}.cls-13{fill:#ea907f;}.cls-14{fill:#0d2d54;}.cls-15{fill:#807dff;}.cls-16{fill:#d7d7f9;}.cls-17{fill:#5331b2;}.cls-18{fill:#4386e9;}.cls-19{clip-path:url(#clip-path);}.cls-20{fill:#dbe0e4;}.cls-21{fill:#141720;}.cls-22{fill:#138c10;}.cls-23{fill:#1a6cf3;}</style><clipPath id="clip-path"><circle class="cls-1" cx="1415.1" cy="573.49" r="291.8"/></clipPath></defs><title>ilustracao_contact</title><path class="cls-2" d="M1770.5,1156.2c-19.3,53.4-72.6,106.5-140.3,155.6-183.7,133.3-473.2,237.3-477.4,238.4,0,0-320.7,95.8-571.3-40.6S235,794.5,323.5,658.1c1.7-2.6,3.5-5.2,5.5-7.7,13.2-16.8,32.2-30.5,55.5-41.5,152.4-71.8,490-25,615.4,56.6,147.4,95.8,326.2,84.8,691.1,322.5C1772.7,1041.4,1791.2,1098.9,1770.5,1156.2Z"/><path class="cls-2" d="M1542.4,1784.6H455.6a52.92,52.92,0,0,1-52.9-52.9v-36.8a52.92,52.92,0,0,1,52.9-52.9H1542.5a52.92,52.92,0,0,1,52.9,52.9v36.8A53.07,53.07,0,0,1,1542.4,1784.6Z"/><ellipse class="cls-2" cx="717.5" cy="1710.3" rx="458" ry="98"/><path class="cls-3" d="M1642.3,1071.4H572.4a80.15,80.15,0,0,1-80.1-80.1V319.8a80.15,80.15,0,0,1,80.1-80.1H1642.3a80.15,80.15,0,0,1,80.1,80.1V991.2A80.23,80.23,0,0,1,1642.3,1071.4ZM572.4,241.3a78.57,78.57,0,0,0-78.5,78.5V991.2a78.57,78.57,0,0,0,78.5,78.5H1642.3a78.57,78.57,0,0,0,78.5-78.5V319.8a78.57,78.57,0,0,0-78.5-78.5Z"/><rect class="cls-3" x="493.1" y="393.7" width="1228.5" height="1.6"/><path class="cls-3" d="M624.1,340.9a20.2,20.2,0,1,1,20.2-20.2A20.21,20.21,0,0,1,624.1,340.9Zm0-38.7a18.6,18.6,0,1,0,18.6,18.6A18.63,18.63,0,0,0,624.1,302.2Z"/><path class="cls-3" d="M689.6,340.9a20.2,20.2,0,1,1,20.2-20.2A20.21,20.21,0,0,1,689.6,340.9Zm0-38.7a18.6,18.6,0,1,0,18.6,18.6A18.63,18.63,0,0,0,689.6,302.2Z"/><path class="cls-3" d="M755.1,340.9a20.2,20.2,0,1,1,20.2-20.2A20.21,20.21,0,0,1,755.1,340.9Zm0-38.7a18.6,18.6,0,1,0,18.6,18.6A18.63,18.63,0,0,0,755.1,302.2Z"/><circle class="cls-4" cx="451.3" cy="1632.4" r="38.5"/><circle class="cls-4" cx="687" cy="1632.4" r="38.5"/><rect class="cls-4" x="554.98" y="1379.95" width="49" height="249.6"/><rect class="cls-4" x="459.18" y="1604.52" width="240.7" height="25.1"/><path class="cls-5" d="M439.8,964l44.5-31.8,139.2,1.3L747.6,1430s-92.3,80.3-249.5-23.4C369.2,1321.6,418.1,1056.4,439.8,964Z"/><path class="cls-4" d="M660.3,933.6l-175.5-1.7s-108.7,349.4,48.5,453S784.4,1430,784.4,1430Z"/><path class="cls-3" d="M714.3,1215l132.1,140.1a43,43,0,0,1-5.3,63.8L601.8,1600.6l-30.1-43.5L718.8,1380,581.7,1226.2Z"/><path class="cls-6" d="M655.3,1236.2l119.5,139.4a54.27,54.27,0,0,1,9.6,54.5l-85.6,227.4H662l23.4-227.4L596.9,1369a132.78,132.78,0,0,1-57-98.7l-4.9-60.8Z"/><path class="cls-7" d="M429,1236.2H1520.6a24.54,24.54,0,0,0,24.5-24.5h0a24.54,24.54,0,0,0-24.5-24.5H429a24.54,24.54,0,0,0-24.5,24.5h0A24.54,24.54,0,0,0,429,1236.2Z"/><path class="cls-8" d="M857.4,981.3a21.69,21.69,0,0,0,3-15.2c-1.5-8.9.4-28.2,3.3-28.6s4.5,8.2,4.5,13c0,0,15.2-26,15.6-35.3s6.3-14.1,8.9-7.1,11.5,40.1,2.2,63.2-28.6,37.1-28.6,37.1l-14.5-8.9Z"/><polygon class="cls-8" points="716.3 950.3 687 1005.8 651.9 983.7 671.2 918.6 716.3 950.3"/><path class="cls-9" d="M755.6,932.6s43.5-36.8,31.2-70.2c0,0,5.6-51.3-39-55.7s-98.1,6.1-98.1,67.7,62.4,62.7,62.4,62.7Z"/><path class="cls-8" d="M772.6,888.6s-22.6,96.1-70.2,85.3-51-56-51-56-25.9-16.7-1.7-43.5,20.9,9.2,20.9,9.2L689,855.2Z"/><path class="cls-10" d="M516.5,1190.5H748l-2.5-29.3-35.1-2.5s-4.2-42.6,4.2-59.3l64.9,85.7,96.4-164.6-23.4-50.2s-71.9,122-73,127.4l-43.2-80.3S717.1,984.8,697,989l-10,16.7-32.6-35.1s-70.2-5-81.9,11.7S501.5,1117.8,516.5,1190.5Z"/><path class="cls-11" d="M640.8,1149.3l47.9,7.8s18.9-67.4,8.4-168l-10,16.7-32.6-35.1C654.4,970.7,615.2,1091.3,640.8,1149.3Z"/><polygon class="cls-3" points="640.8 1149.3 575 1138.1 606.2 1037.8 592.9 1121.4 640.8 1149.3"/><path class="cls-8" d="M748.1,1190.5l-2.5-27s47.9,5,58,28.1Z"/><path class="cls-9" d="M705,900.4c0-.5.3-11.6-5.6-14.4-3.6-1.7-8.6.2-14.9,5.7l1,1.1c5.8-5.1,10.3-6.9,13.3-5.4,5,2.4,4.8,12.9,4.8,13Z"/><path class="cls-9" d="M746.1,916.7c0-.5.3-11.6-5.6-14.4-3.6-1.7-8.6.2-14.9,5.7l1,1.1c5.8-5.1,10.3-6.9,13.3-5.4,5,2.4,4.8,12.9,4.8,13Z"/><path class="cls-9" d="M715,930.5c-5.6,0-12-4.4-12.4-4.7l1.1-1.6c.1.1,11.5,7.9,15.7,2.3a4.66,4.66,0,0,0,1-3.9c-.7-2.7-4.3-4.7-5.6-5.3l-.7-.3,1.6-9.5,2,.3-1.4,8c1.6.8,5.2,3,6,6.3a6.48,6.48,0,0,1-1.3,5.7A7.11,7.11,0,0,1,715,930.5Z"/><ellipse class="cls-9" cx="701.2" cy="944.4" rx="9.5" ry="4.3"/><path class="cls-12" d="M625.7,882.3a25.65,25.65,0,0,0,51.3,0,25.65,25.65,0,0,0-51.3,0Z"/><circle class="cls-6" cx="651.4" cy="882.3" r="16.5"/><path class="cls-12" d="M648.6,858.4s18-67.1,89.9-52.6c0,0-67.1,6.3-79.3,54.2Z"/><path class="cls-6" d="M636.6,903.3a25.31,25.31,0,0,0,14.8,4.7A25.66,25.66,0,0,0,674,870.3c.4,2.4,4.8,35.8-30.1,34.4Z"/><path class="cls-12" d="M693.8,947.1l.9-4.3c-30.9-6.3-39.8-41.9-39.9-42.2l-4.2,1C650.9,903.2,660.2,940.2,693.8,947.1Z"/><path class="cls-6" d="M686.6,950l5.9,2.2a6.55,6.55,0,0,0,8.4-3.8h0a6.55,6.55,0,0,0-3.8-8.4l-5.9-2.2a6.55,6.55,0,0,0-8.4,3.8h0A6.47,6.47,0,0,0,686.6,950Z"/><polygon class="cls-3" points="670 1023.9 684.5 1010.8 694 1025.8 688.2 1024.4 679.8 1155.4 658.3 1152.3 679 1023 670 1023.9"/><path class="cls-9" d="M710.8,886.4s-8.7-9.1-14.9-8.4a42.87,42.87,0,0,0-9.5,2s8.7-8.2,13.9-7.4,14.5,9.5,14.5,9.5A4,4,0,0,1,710.8,886.4Z"/><path class="cls-9" d="M734.3,893.7s12.4,2.2,15.2,7.8a39.15,39.15,0,0,1,3.5,9s2-11.8-1.5-15.7-15.9-6.8-15.9-6.8A4,4,0,0,0,734.3,893.7Z"/><ellipse class="cls-13" cx="690.39" cy="901.87" rx="3" ry="9.5" transform="translate(-422.63 1128.1) rotate(-64.06)"/><ellipse class="cls-13" cx="734.01" cy="919.85" rx="3" ry="9.5" transform="translate(-414.27 1177.45) rotate(-64.06)"/><path class="cls-14" d="M698.7,1657.5s70.2,20.1,68.5,35.1-112,1.7-112,1.7l6.7-36.8Z"/><path class="cls-14" d="M601.8,1600.6s25.1,50.2,20.1,65.2-85.3-80.2-85.3-80.2l35.1-28.4Z"/><polygon class="cls-7" points="1390.5 1764.5 1243.1 1223.6 1273.3 1215.4 1423 1764.5 1390.5 1764.5"/><polygon class="cls-7" points="426.3 1761.1 573.7 1220.2 543.5 1212 393.9 1761.1 426.3 1761.1"/><polygon class="cls-15" points="642.3 410.3 413.5 410.3 413.5 549.7 570.2 549.7 594.4 606.9 613.5 549.7 642.3 549.7 642.3 410.3"/><rect class="cls-16" x="437.1" y="435.2" width="181.6" height="8.7"/><rect class="cls-16" x="437.1" y="461.3" width="181.6" height="8.7"/><rect class="cls-16" x="437.1" y="487.5" width="181.6" height="8.7"/><rect class="cls-16" x="437.1" y="513.6" width="181.6" height="8.7"/><polygon class="cls-17" points="675.5 533.9 895.3 533.9 895.3 667.8 744.8 667.8 721.5 722.7 703.1 667.8 675.5 667.8 675.5 533.9"/><rect class="cls-11" x="698.18" y="557.82" width="174.4" height="8.4"/><rect class="cls-11" x="698.18" y="582.9" width="174.4" height="8.4"/><rect class="cls-11" x="698.18" y="607.99" width="174.4" height="8.4"/><rect class="cls-11" x="698.18" y="633.07" width="174.4" height="8.4"/><path class="cls-18" d="M1579.6,961.4s-.3.3-.7.8c-2.7,2.8-12,12.7-15,16.2-3.5,4.1-12.3,6.4-32.1,18.1s-15.2,11.7-19.9,18.7-10.5,11.1-30.4,18.1-32.7,7.6-32.7,7.6l-11.1,32.7-1.8.6-1.7.6,3.7-15.8,3.5-15.2h0l1.6-6.8s1.7-15.2,11.7-20.4,9.9-4.7,18.7-9.3,9.9-7.6,21.6-16.9,10.5-6.4,30.4-11.7C1545.1,973.1,1579.6,961.4,1579.6,961.4Z"/><path class="cls-18" d="M1419,1078.8l-.4.4-1,1-6.3-21.2s-6.9-.6-11.5-1.2-9.3-1.2-12.8-2.9a58.34,58.34,0,0,0-9.9-4.1c-2.3-.6-9.9-1.2-19.3-5.8s-3.5-3.5-8.2-7.6-3.5-4.1-5.3-5.3-5.8-2.3-7.6-3.5-10.5-3.5-16.4-8.2-5.3-14-9.9-21-7.6-7-11.7-13.4-7.6-16.4-7.6-16.4,15.2,11.1,18.7,14,14,6.4,16.9,9.3,28.6,14.6,33.9,16.9,46.7,29.2,49.6,31.5S1419,1078.8,1419,1078.8Z"/><path class="cls-18" d="M1428.3,1078.2l-2.9,2.9-7.6-49.1s-6.4-10.5-8.2-12.3-2.9-2.9-7.6-7.6-4.1-8.2-6.4-13.4-4.7-8.8-7.6-35.6-4.1-13.4-8.8-27.4,1.7-18.7.6-32.1c-1.1-13,6-26.1,6.4-26.8h0a74.32,74.32,0,0,0,2.9,18.7c2.9,9.9,3.5,6.4,5.3,17.5s.6,8.2,1.2,18.1,3.5,6.4,7.6,15.8,2.3,8.2,2.3,19.9,4.7,16.4,13.4,33.9,6.4,17.5,6.4,24.5C1425.4,1032,1428.3,1078.2,1428.3,1078.2Z"/><path class="cls-18" d="M1496.1,872c-5.3,8.8-6.4,14.6-14,30.9s0,16.4-.6,29.8,0,15.8-5.8,26.3-8.2,16.9-15.2,31-15.2,18.7-15.2,31.5-5.2,11.7-9.3,20.4c-3.7,7.9-4.5,35.2-4.6,40.6v.9c-6.4-13.4.6-40.9.6-40.9s4.1-18.1,3.5-21-.6-9.9-1.2-14,2.3-19.9,2.3-29.2,0-9.3,2.3-20.4,6.4-9.9,10.5-21.6,4.7-11.7,10.5-22.8c5.2-9.9,34.4-42.4,36.6-42.7C1496.7,870.7,1496.6,871.1,1496.1,872Z"/><path class="cls-6" d="M1578.8,962.1c-2.7,2.8-12,12.7-15,16.2-3.5,4.1-12.3,6.4-32.1,18.1s-15.2,11.7-19.9,18.7-10.5,11.1-30.4,18.1-32.7,7.6-32.7,7.6l-11.1,32.7-1.8.6s.5-6.9,1.9-15.3a111.68,111.68,0,0,1,3.5-15.2h0c1.7-5.4,4-10,6.8-12.1,9.6-7,20.1-9.9,33.3-17.5s14.3-13.4,25.1-17.8,16.6-2.3,23.4-6.1,38.2-20.4,41.8-22.8C1573.5,966,1576.4,963.9,1578.8,962.1Z"/><path class="cls-6" d="M1496.1,872c-5.3,8.8-6.4,14.6-14,30.9s0,16.4-.6,29.8,0,15.8-5.8,26.3-8.2,16.9-15.2,31-15.2,18.7-15.2,31.5-5.2,11.7-9.3,20.4c-3.7,7.9-4.5,35.2-4.6,40.6h-.2s-2.6-27.2,2-38.3,7.9-19.1,8.3-25.4-3.9-15.8,3.3-31.7,8.3-19.7,9.2-21.5,3.1-17.3,7.7-31.3,5-18.8,5.7-19.7,13.8-21,15.1-23.2c1.2-2,12-17.5,14.1-20.5C1496.7,870.7,1496.6,871.1,1496.1,872Z"/><path class="cls-6" d="M1428.3,1078.2l-1,1c-1.2-9-3.6-26.6-3.6-27.6,0-1.3-4.4-30.2-5.3-32s-1.3-10.9-5.2-18.4-6.6-11.4-9.6-17.1-3.9-6.1-7.4-13.6.4-6.1.4-9.2a41.35,41.35,0,0,0-3.1-15.8c-2.6-6.1-2.2-4.8-3.9-12.7s-.9-10.1-5.3-24.5c-4.3-14.1,1.7-30.8,2-31.6h0a74.32,74.32,0,0,0,2.9,18.7c2.9,9.9,3.5,6.4,5.3,17.5s.6,8.2,1.2,18.1,3.5,6.4,7.6,15.8,2.3,8.2,2.3,19.9,4.7,16.4,13.4,33.9,6.4,17.5,6.4,24.5S1428.3,1078.2,1428.3,1078.2Z"/><path class="cls-6" d="M1419,1078.8l-.4.4-6.1-24a104.88,104.88,0,0,0-9.1-7.6c-4.1-2.9-5-2-9.9-4.4s-5.2-1.2-14.6-3.5-17.2-12.6-21-15.2-6.1-4.1-8.5-5.8-7.3-2.9-14.9-4.7-8.2-6.1-10.8-9.3-3.8-8.5-13.7-14.9-19-20.2-19-20.2,15.2,11.1,18.7,14,14,6.4,16.9,9.3,28.6,14.6,33.9,16.9,46.7,29.2,49.6,31.5C1413.2,1043.7,1419,1078.8,1419,1078.8Z"/><polygon class="cls-4" points="1504.2 1053.5 1504.1 1054.2 1481 1188 1382.9 1188 1382.3 1184.9 1357.5 1053.5 1504.2 1053.5"/><polygon class="cls-5" points="1504.1 1053.6 1481 1188 1382.9 1188 1382.3 1184.9 1489.1 1053.5 1504.1 1053.6"/><g class="cls-19"><circle class="cls-20" cx="1415.1" cy="573.49" r="291.8"/></g><g class="cls-19"><path class="cls-15" d="M1439.9,555s93,15,104.4,46.5,25.7,168.8,10,171.6-67-47.4-67-47.4l17,175.4-214.5,6.5,12.9-227.4-73.1,63.7,25.1-147.1s109.5-51.1,135.2-46.8A413.92,413.92,0,0,0,1439.9,555Z"/></g><g class="cls-19"><polygon class="cls-8" points="1271.1 505 1268.7 542.79 1316.1 550.79 1332.2 517.1 1313.7 504.19 1271.1 505"/><polygon class="cls-3" points="1330.7 425.69 1365.9 458.1 1300.7 535.5 1263.2 502.39 1330.7 425.69"/><polygon class="cls-21" points="1328 434.8 1357.4 461.8 1303 526.39 1271.8 498.8 1328 434.8"/><path class="cls-8" d="M1296.6,460.19s-.2-13.2,7.9-14.6,19-4.8,19.7-2.9-3.8,8.6-8.6,11-13.4,7.2-13.4,7.2,10.3.2,9.1,3.8-19.9,8.2-19.9,8.2,15.1,9.4,11.8,12.7-20.6,1-20.6,1,13.2,10.3,9.6,13.9-13.9,3.1-19.7-2.9-6.7-14.2-2.4-15.4,1-5.8,4.8-8.9,9.6-2.9,9.6-3.8S1281,458.79,1296.6,460.19Z"/><path class="cls-8" d="M1332.2,517.09l4.7-36.5s-9.6-1.4-11.3,6.8-4.1,24.8-4.1,24.8l3,11.4Z"/><path class="cls-8" d="M1270.7,539.19s-98.8,146.7-75.2,198.4,60.4-25.9,70.7-51,50-137.5,50-137.5l-38.1-15Z"/></g><g class="cls-19"><path class="cls-8" d="M1384.8,504.89l-7.2,50.8-8.6,10.7s15.7,26.5,40.8,20.7,32.2-20,32.2-20-13.6-32.2-5.7-55.8S1384.8,504.89,1384.8,504.89Z"/></g><g class="cls-19"><path class="cls-8" d="M1496.8,703l-101.4-21.5-28.6-26.3L1325,660s-8.4,8.4,7.2,14.3,29.8,27.4,29.8,27.4L1475.7,753s81.2,29.5,92,21.1l-8.6-80.9-62.3-8.9V703Z"/></g><g class="cls-19"><path class="cls-13" d="M1391.4,503.69l45.3,4.4s-6.8,23.1-21.5,23.1-29.8-9.5-25.5-27"/></g><g class="cls-19"><path class="cls-8" d="M1475.1,451.29c-48.6-4.6-100.3-58.7-100.3-58.7-9.3,15.2-19.6,45.7-25.4,50.5,4.3,34.4,30.9,76.3,63.4,76.3,30.3,0,55.9-36.4,62.8-69.2A6.07,6.07,0,0,1,1475.1,451.29Z"/></g><g class="cls-19"><path class="cls-9" d="M1375.5,439.09s12.3-3.4,22-1.1a1,1,0,0,0,.8-1.7c-3.5-2.5-8.7-5.4-14.2-5.3C1374.3,431.09,1370.1,436.49,1375.5,439.09Z"/></g><g class="cls-19"><ellipse class="cls-9" cx="1388.9" cy="451.29" rx="4.6" ry="7.3"/></g><g class="cls-19"><path class="cls-9" d="M1445.6,441.49s-12.3-3.4-22-1.1a1,1,0,0,1-.8-1.7c3.5-2.5,8.7-5.4,14.2-5.3C1446.8,433.49,1451,438.89,1445.6,441.49Z"/></g><g class="cls-19"><ellipse class="cls-9" cx="1432.1" cy="453.69" rx="4.6" ry="7.3"/></g><g class="cls-19"><path class="cls-9" d="M1404.5,459.59s-18.3,15.1,7.2,21.9C1411.7,481.39,1398.1,474.29,1404.5,459.59Z"/></g><g class="cls-19"><ellipse class="cls-13" cx="1433" cy="465.99" rx="8.1" ry="2.2"/></g><g class="cls-19"><ellipse class="cls-13" cx="1388.6" cy="462.39" rx="8.1" ry="2.2"/></g><g class="cls-19"><path class="cls-11" d="M1395,490.79s31.4-8.1,33.5-6.4-6,16.4-15.9,16.6S1389.5,492.39,1395,490.79Z"/></g><path class="cls-20" d="M1415.1,883.29A308.63,308.63,0,1,1,1535.7,859,309,309,0,0,1,1415.1,883.29Zm0-615.7c-168.7,0-305.9,137.2-305.9,305.9s137.2,305.9,305.9,305.9S1721,742.19,1721,573.49,1583.7,267.59,1415.1,267.59Z"/><circle class="cls-22" cx="1177.5" cy="346.79" r="71"/><polygon class="cls-11" points="1164 368.89 1136.4 339.89 1138.1 338.3 1164.3 365.69 1217.3 324.69 1218.7 326.6 1164 368.89"/><path class="cls-8" d="M1408.4,388.37s-22.93,45.19,7.43,57.7,57.67,5.62,57.67,5.62l2.3-3.26-7.15-57.25Z"/><path class="cls-9" d="M1349.84,449.21s-4.89-63.93,13.71-78.58,58.36-13.48,65.56-12.55,22.79,9.76,22.79,9.76,1.16-7.49-1.86-10.25,7,4.91,7.9,9.56,1.86,7,7,8.13,18.6,17,14.19,48.59-4.65,30.69-4.65,30.69-9.3-35.8-14.65-41.85-6.28-6.93-6.28-6.93-8.6,10.89-28.82,15.07a88.16,88.16,0,0,1-37.67-.7s12.32-1.16,12.79-4.88-11.39,4.65-20.69,2.33-11.63-7.44-11.63-7.44a95.11,95.11,0,0,0-11.16,21.15A108.82,108.82,0,0,0,1351,452Z"/><path class="cls-9" d="M1445.52,441.62s-12.3-3.4-22-1.1a1,1,0,0,1-.8-1.7c3.5-2.5,8.7-5.4,14.2-5.3C1446.72,433.62,1450.92,439,1445.52,441.62Z"/><ellipse class="cls-9" cx="1432.12" cy="453.71" rx="4.6" ry="7.3"/><path class="cls-17" d="M1778,619H1635.83a3.08,3.08,0,0,0-3.08,3.08v84.15a3.08,3.08,0,0,0,3.08,3.07h96.48a3.07,3.07,0,0,1,2.83,1.88l11.73,27.7a3.08,3.08,0,0,0,5.75-.23l9-27.24a3.07,3.07,0,0,1,2.92-2.11H1778a3.08,3.08,0,0,0,3.08-3.07V622.12A3.08,3.08,0,0,0,1778,619Z"/><circle class="cls-11" cx="1668.65" cy="662.04" r="8.9"/><circle class="cls-11" cx="1706.85" cy="662.04" r="8.9"/><circle class="cls-11" cx="1745.15" cy="662.04" r="8.9"/><path class="cls-23" d="M996.6,1190.15l75.6,25.9a6.93,6.93,0,0,0,2,.3h79.6a6.24,6.24,0,0,0,5.3-9.6l-16.2-25.9a6.29,6.29,0,0,0-5.3-2.9h-139C991.5,1178,989.9,1187.85,996.6,1190.15Z"/><path class="cls-6" d="M996.6,1190.15l75.6,25.9a6.93,6.93,0,0,0,2,.3h8c-.6-2.7-1.1-6.2-3.9-7.1-3-1-10.1-7.4-10.1-7.4l-69.3-24h-.4C991.5,1178,989.9,1187.85,996.6,1190.15Z"/><path class="cls-10" d="M1239,1096.05H895.3l47.2-256.8,313.3,2.8a23.72,23.72,0,0,1,23.1,27.8Z"/><path class="cls-12" d="M895.3,1096.05h367.6l2.8-20.6,15.7-88.9,24.2-137.4a23.76,23.76,0,0,0-23.1-27.8l-313.3-2.8s-20.1,2-26.6,20.6c0,0,22.6-2.5,19.1,17.6h.5l-1.3,6.9L922,1075.35C921.9,1075.45,916.4,1092.55,895.3,1096.05Z"/><path class="cls-6" d="M895.3,1096.05h367.6l2.8-20.6,15.7-88.9c-50.5-7.8-230.5-40.7-320.4-122.8l-38.9,211.7C921.9,1075.45,916.4,1092.55,895.3,1096.05Z"/><path class="cls-6" d="M1140.5,1013.65H1027.4l33.7,190.2a16.74,16.74,0,0,0,16.5,13.8h85.9a16.66,16.66,0,0,0,16.3-20.2Z"/><path class="cls-10" d="M1157.6,1013.65H1044.5l33.7,190.2a16.74,16.74,0,0,0,16.5,13.8h85.9a16.66,16.66,0,0,0,16.3-20.2Z"/></svg>