<svg width="48" height="48" viewBox="0 0 48 48" fill="none" xmlns="http://www.w3.org/2000/svg">
<g clip-path="url(#clip0_1509_11058)">
<path d="M23.6596 47.0382C36.7264 47.0382 47.3192 36.6203 47.3192 23.7691C47.3192 10.9179 36.7264 0.5 23.6596 0.5C10.5928 0.5 0 10.9179 0 23.7691C0 36.6203 10.5928 47.0382 23.6596 47.0382Z" fill="#CA9050"/>
<mask id="mask0_1509_11058" style="mask-type:luminance" maskUnits="userSpaceOnUse" x="8" y="6" width="31" height="35">
<path d="M38.2453 6.87549H8.42773V40.6635H38.2453V6.87549Z" fill="white"/>
</mask>
<g mask="url(#mask0_1509_11058)">
<path d="M23.3423 16.1803C19.1093 16.1803 15.6949 19.5657 15.6949 23.7628C15.6949 27.9599 19.1093 31.3453 23.3423 31.3453C27.5754 31.3453 30.9897 27.9599 30.9897 23.7628C30.9897 19.5657 27.5754 16.1803 23.3423 16.1803ZM23.3423 28.6924C20.6068 28.6924 18.3705 26.4817 18.3705 23.7628C18.3705 21.0439 20.6002 18.8332 23.3423 18.8332C26.0845 18.8332 28.3141 21.0439 28.3141 23.7628C28.3141 26.4817 26.0778 28.6924 23.3423 28.6924ZM33.0863 15.8701C33.0863 16.8534 32.2876 17.6387 31.3026 17.6387C30.3109 17.6387 29.5188 16.8468 29.5188 15.8701C29.5188 14.8934 30.3175 14.1015 31.3026 14.1015C32.2876 14.1015 33.0863 14.8934 33.0863 15.8701ZM38.1513 17.6651C38.0381 15.296 37.4924 13.1974 35.7419 11.4684C33.9981 9.73945 31.8816 9.19831 29.4922 9.07952C27.0296 8.94094 19.6484 8.94094 17.1858 9.07952C14.803 9.19171 12.6865 9.73285 10.9361 11.4618C9.18562 13.1908 8.64651 15.2894 8.5267 17.6585C8.38693 20.1002 8.38693 27.4188 8.5267 29.8605C8.63985 32.2296 9.18562 34.3282 10.9361 36.0572C12.6865 37.7862 14.7964 38.3273 17.1858 38.4461C19.6484 38.5847 27.0296 38.5847 29.4922 38.4461C31.8816 38.3339 33.9981 37.7928 35.7419 36.0572C37.4857 34.3282 38.0315 32.2296 38.1513 29.8605C38.291 27.4188 38.291 20.1068 38.1513 17.6651ZM34.9698 32.4804C34.4507 33.7738 33.4457 34.7703 32.1345 35.2916C30.1711 36.0638 25.5121 35.8856 23.3423 35.8856C21.1726 35.8856 16.5069 36.0572 14.5501 35.2916C13.2456 34.7769 12.2406 33.7804 11.7148 32.4804C10.9361 30.5336 11.1158 25.9141 11.1158 23.7628C11.1158 21.6115 10.9427 16.9854 11.7148 15.0452C12.2339 13.7518 13.2389 12.7553 14.5501 12.234C16.5136 11.4618 21.1726 11.64 23.3423 11.64C25.5121 11.64 30.1777 11.4684 32.1345 12.234C33.439 12.7487 34.444 13.7452 34.9698 15.0452C35.7486 16.992 35.5689 21.6115 35.5689 23.7628C35.5689 25.9141 35.7486 30.5402 34.9698 32.4804Z" fill="white"/>
</g>
</g>
<defs>
<clipPath id="clip0_1509_11058">
<rect width="48" height="47" fill="white" transform="translate(0 0.5)"/>
</clipPath>
</defs>
</svg>
