<svg width="48" height="47" viewBox="0 0 48 47" fill="none" xmlns="http://www.w3.org/2000/svg">
<g clip-path="url(#clip0_1201_369)">
<path d="M23.6596 46.5382C36.7264 46.5382 47.3192 36.1203 47.3192 23.2691C47.3192 10.4179 36.7264 0 23.6596 0C10.5928 0 0 10.4179 0 23.2691C0 36.1203 10.5928 46.5382 23.6596 46.5382Z" fill="#0097B2"/>
<mask id="mask0_1201_369" style="mask-type:luminance" maskUnits="userSpaceOnUse" x="8" y="6" width="31" height="35">
<path d="M38.2453 6.37598H8.42773V40.164H38.2453V6.37598Z" fill="white"/>
</mask>
<g mask="url(#mask0_1201_369)">
<path d="M23.3423 15.6803C19.1093 15.6803 15.6949 19.0657 15.6949 23.2628C15.6949 27.4599 19.1093 30.8453 23.3423 30.8453C27.5754 30.8453 30.9897 27.4599 30.9897 23.2628C30.9897 19.0657 27.5754 15.6803 23.3423 15.6803ZM23.3423 28.1924C20.6068 28.1924 18.3705 25.9817 18.3705 23.2628C18.3705 20.5439 20.6002 18.3332 23.3423 18.3332C26.0845 18.3332 28.3141 20.5439 28.3141 23.2628C28.3141 25.9817 26.0778 28.1924 23.3423 28.1924ZM33.0863 15.3701C33.0863 16.3534 32.2876 17.1387 31.3026 17.1387C30.3109 17.1387 29.5188 16.3468 29.5188 15.3701C29.5188 14.3934 30.3175 13.6015 31.3026 13.6015C32.2876 13.6015 33.0863 14.3934 33.0863 15.3701ZM38.1513 17.1651C38.0381 14.796 37.4924 12.6974 35.7419 10.9684C33.9981 9.23945 31.8816 8.69831 29.4922 8.57952C27.0296 8.44094 19.6484 8.44094 17.1858 8.57952C14.803 8.69171 12.6865 9.23285 10.9361 10.9618C9.18562 12.6908 8.64651 14.7894 8.5267 17.1585C8.38693 19.6002 8.38693 26.9188 8.5267 29.3605C8.63985 31.7296 9.18562 33.8282 10.9361 35.5572C12.6865 37.2862 14.7964 37.8273 17.1858 37.9461C19.6484 38.0847 27.0296 38.0847 29.4922 37.9461C31.8816 37.8339 33.9981 37.2928 35.7419 35.5572C37.4857 33.8282 38.0315 31.7296 38.1513 29.3605C38.291 26.9188 38.291 19.6068 38.1513 17.1651ZM34.9698 31.9804C34.4507 33.2738 33.4457 34.2703 32.1345 34.7916C30.1711 35.5638 25.5121 35.3856 23.3423 35.3856C21.1726 35.3856 16.5069 35.5572 14.5501 34.7916C13.2456 34.2769 12.2406 33.2804 11.7148 31.9804C10.9361 30.0336 11.1158 25.4141 11.1158 23.2628C11.1158 21.1115 10.9427 16.4854 11.7148 14.5452C12.2339 13.2518 13.2389 12.2553 14.5501 11.734C16.5136 10.9618 21.1726 11.14 23.3423 11.14C25.5121 11.14 30.1777 10.9684 32.1345 11.734C33.439 12.2487 34.444 13.2452 34.9698 14.5452C35.7486 16.492 35.5689 21.1115 35.5689 23.2628C35.5689 25.4141 35.7486 30.0402 34.9698 31.9804Z" fill="white"/>
</g>
</g>
<defs>
<clipPath id="clip0_1201_369">
<rect width="48" height="47" fill="white"/>
</clipPath>
</defs>
</svg>
