<svg width="48" height="47" viewBox="0 0 48 47" fill="none" xmlns="http://www.w3.org/2000/svg">
<ellipse cx="23.6596" cy="23.2691" rx="23.6596" ry="23.2691" fill="#00C17C"/>
<path d="M36.1601 8.92529H11.1512C10.0053 8.92529 9.07422 9.85381 9.07422 10.9936V35.5449C9.07422 36.6847 10.0053 37.6132 11.1512 37.6132H36.1601C37.306 37.6132 38.2436 36.6847 38.2436 35.5449V10.9936C38.2436 9.85381 37.306 8.92529 36.1601 8.92529ZM17.8901 33.515H13.5668V19.8242H17.8967V33.515H17.8901ZM15.7285 17.9543C14.3416 17.9543 13.2217 16.8465 13.2217 15.4889C13.2217 14.1314 14.3416 13.0236 15.7285 13.0236C17.1088 13.0236 18.2352 14.1314 18.2352 15.4889C18.2352 16.8529 17.1153 17.9543 15.7285 17.9543ZM34.0961 33.515H29.7728V26.8553C29.7728 25.2672 29.7402 23.2244 27.5265 23.2244C25.2736 23.2244 24.9286 24.9534 24.9286 26.74V33.515H20.6052V19.8242H24.7528V21.694H24.8114C25.3908 20.6182 26.8037 19.4848 28.9068 19.4848C33.2822 19.4848 34.0961 22.3215 34.0961 26.01V33.515Z" fill="white"/>
</svg>
