<svg width="48" height="47" viewBox="0 0 48 47" fill="none" xmlns="http://www.w3.org/2000/svg">
<g clip-path="url(#clip0_1201_379)">
<path d="M23.6596 46.5382C36.7264 46.5382 47.3192 36.1203 47.3192 23.2691C47.3192 10.4179 36.7264 0 23.6596 0C10.5928 0 0 10.4179 0 23.2691C0 36.1203 10.5928 46.5382 23.6596 46.5382Z" fill="#0097B2"/>
<path d="M36.1601 8.9248H11.1512C10.0053 8.9248 9.07422 9.85332 9.07422 10.9931V35.5444C9.07422 36.6842 10.0053 37.6127 11.1512 37.6127H36.1601C37.306 37.6127 38.2436 36.6842 38.2436 35.5444V10.9931C38.2436 9.85332 37.306 8.9248 36.1601 8.9248ZM17.8901 33.5145H13.5668V19.8237H17.8967V33.5145H17.8901ZM15.7285 17.9538C14.3416 17.9538 13.2217 16.846 13.2217 15.4884C13.2217 14.1309 14.3416 13.0231 15.7285 13.0231C17.1088 13.0231 18.2352 14.1309 18.2352 15.4884C18.2352 16.8524 17.1153 17.9538 15.7285 17.9538ZM34.0961 33.5145H29.7728V26.8548C29.7728 25.2667 29.7402 23.2239 27.5265 23.2239C25.2736 23.2239 24.9286 24.9529 24.9286 26.7395V33.5145H20.6052V19.8237H24.7528V21.6935H24.8114C25.3908 20.6177 26.8037 19.4843 28.9068 19.4843C33.2822 19.4843 34.0961 22.321 34.0961 26.0095V33.5145Z" fill="white"/>
</g>
<defs>
<clipPath id="clip0_1201_379">
<rect width="48" height="47" fill="white"/>
</clipPath>
</defs>
</svg>
