<svg width="48" height="48" viewBox="0 0 48 48" fill="none" xmlns="http://www.w3.org/2000/svg">
<g clip-path="url(#clip0_1509_11065)">
<path d="M23.6596 47.0382C36.7264 47.0382 47.3192 36.6203 47.3192 23.7691C47.3192 10.9179 36.7264 0.5 23.6596 0.5C10.5928 0.5 0 10.9179 0 23.7691C0 36.6203 10.5928 47.0382 23.6596 47.0382Z" fill="#CA9050"/>
<path d="M36.1601 9.42529H11.1512C10.0053 9.42529 9.07422 10.3538 9.07422 11.4936V36.0449C9.07422 37.1847 10.0053 38.1132 11.1512 38.1132H36.1601C37.306 38.1132 38.2436 37.1847 38.2436 36.0449V11.4936C38.2436 10.3538 37.306 9.42529 36.1601 9.42529ZM17.8901 34.015H13.5668V20.3242H17.8967V34.015H17.8901ZM15.7285 18.4543C14.3416 18.4543 13.2217 17.3465 13.2217 15.9889C13.2217 14.6314 14.3416 13.5236 15.7285 13.5236C17.1088 13.5236 18.2352 14.6314 18.2352 15.9889C18.2352 17.3529 17.1153 18.4543 15.7285 18.4543ZM34.0961 34.015H29.7728V27.3553C29.7728 25.7672 29.7402 23.7244 27.5265 23.7244C25.2736 23.7244 24.9286 25.4534 24.9286 27.24V34.015H20.6052V20.3242H24.7528V22.194H24.8114C25.3908 21.1182 26.8037 19.9848 28.9068 19.9848C33.2822 19.9848 34.0961 22.8215 34.0961 26.51V34.015Z" fill="white"/>
</g>
<defs>
<clipPath id="clip0_1509_11065">
<rect width="48" height="47" fill="white" transform="translate(0 0.5)"/>
</clipPath>
</defs>
</svg>
