<svg width="956" height="814" viewBox="0 0 956 814" fill="none" xmlns="http://www.w3.org/2000/svg">
<g clip-path="url(#clip0_1498_11067)">
<rect width="956" height="814" fill="#1E1E1E"/>
<path d="M567.338 396.805C541.502 387.242 525.144 371.674 526.561 341.488C531.518 239.581 608.577 134.518 562.422 37.0538C538.652 -12.9657 482.243 -47.073 409.703 -65.1006C66.7015 -149.858 -197.619 -0.898487 -270.308 71.4774C-344.814 145.629 -273.019 230.229 -210.852 280.749C-134.294 343.023 -42.6791 400.896 -12.4645 484.326C19.4216 572.422 115.541 766.576 196.334 840.172C253.336 892.095 377.212 952.301 481.949 934.704C586.687 917.107 670.52 825.345 737.614 764.738C804.708 704.132 1174.75 799.721 1195.6 729.503C1223.64 635.083 1089.68 564.537 995.596 521.652C900.191 478.187 794.015 444.821 681.612 420.121C639.979 411.072 597.306 407.947 567.338 396.805Z" stroke="url(#paint0_linear_1498_11067)" stroke-opacity="0.2" stroke-width="3"/>
<path d="M-287.08 60.3911C-366.486 139.377 -289.801 229.572 -223.671 283.438C-142.219 349.836 -44.3182 411.466 -12.3064 500.477C21.614 594.381 98.8161 785.831 185.013 864.267C245.795 919.7 375.282 975.755 487.069 956.973C586.973 940.188 667.908 857.336 734.588 801.211C803.303 743.407 1136.28 821.159 1162.78 753.067C1199.28 658.828 1091.03 583.296 1012.15 532.642C933.034 481.76 838.883 441.427 735.099 410.466C696.639 399.013 656.682 393.159 627.34 380.574C602.184 369.961 585.186 354.233 582.736 325.9C579.134 283.187 584.647 240.816 587.814 199.373C590.58 164.013 591.368 129.254 581.96 95.2713C577.428 78.7859 569.638 62.5806 558.517 46.1327C528.071 1.51331 469.68 -30.5229 394.579 -49.1899C283.025 -76.7061 178.52 -84.4163 84.5929 -78.1277C-91.4355 -66.4679 -230.889 4.42405 -287.08 60.3911Z" stroke="url(#paint1_linear_1498_11067)" stroke-opacity="0.2" stroke-width="3"/>
<path d="M-304.055 49.3387C-388.361 133.159 -306.987 228.983 -236.693 286.16C-150.145 356.649 -46.361 422.104 -12.1493 516.628C23.8055 616.34 82.1079 805.216 173.508 888.527C238.051 947.339 373.37 999.339 491.804 979.441C587.074 963.434 665.094 889.36 731.176 837.882C801.714 782.847 1097.84 842.859 1129.36 776.864C1174.55 682.771 1091.6 602.453 1028.13 543.995C964.923 485.895 883.384 438.362 788.218 401.14C753.151 387.379 715.91 378.795 686.974 364.672C662.48 352.878 644.623 336.893 638.324 310.544C628.622 269.926 624.06 230.718 616.803 192.898C610.757 160.891 603.006 129.972 586.853 99.3959C579.095 84.9233 568.042 70.4695 554.044 55.5746C517.543 16.3843 456.346 -13.5762 379.088 -32.9501C270.681 -60.0592 167.543 -72.8123 71.9305 -72.7916C-94.1831 -72.9585 -240.064 -14.3561 -304.055 49.3387Z" stroke="url(#paint2_linear_1498_11067)" stroke-opacity="0.2" stroke-width="3"/>
<path d="M-321.029 38.2862C-410.216 127.071 -324.172 228.395 -249.897 289.047C-158.253 363.627 -48.3669 433.003 -12.3762 532.977C25.8145 638.463 64.9979 824.669 161.602 912.855C229.906 975.045 370.854 1023.03 496.337 1001.94C586.774 986.748 662.3 921.516 727.765 874.553C800.144 822.417 1059.38 864.428 1096.15 800.626C1150.21 706.646 1092.39 621.706 1044.3 555.183C997.198 489.831 928.069 435.133 841.504 391.519C809.627 375.483 775.304 364.137 746.793 348.606C722.961 335.63 704.262 319.52 694.316 295.12C678.514 256.597 663.876 220.552 646.178 186.224C631.337 157.7 615.23 130.459 592.132 103.322C581.33 90.6978 567.051 78.2567 550.139 64.6536C507.785 30.8586 443.783 2.97385 364.165 -17.0733C258.739 -43.48 157.207 -61.0485 59.6359 -67.7846C-96.7681 -78.273 -249.239 -33.1363 -321.029 38.2862Z" stroke="url(#paint3_linear_1498_11067)" stroke-opacity="0.2" stroke-width="3"/>
<path d="M-337.999 27.2471C-432.086 120.866 -341.352 227.819 -262.913 291.783C-166.358 370.618 -50.4049 443.654 -12.2142 549.141C28.0108 660.436 48.2945 844.068 150.285 936.964C222.368 1002.66 369.129 1046.46 501.479 1024.36C587.082 1009.97 660.333 953.68 724.743 911.039C799.183 861.899 1021.55 886.039 1063.32 824.072C1126.66 730.138 1093.36 640.808 1060.86 566.186C1029.5 493.911 972.959 431.883 895.013 382.008C866.529 363.664 834.921 349.589 806.835 332.649C783.683 318.624 764.125 302.257 750.312 279.71C727.988 243.218 703.916 210.496 675.574 179.695C652.324 154.456 627.459 130.958 597.249 107.557C583.404 96.7807 565.88 86.2217 545.889 74.2054C498.068 45.6075 430.673 20.0307 348.897 -0.723483C246.435 -26.5585 146.598 -48.2889 47.0142 -62.1739C-99.4429 -82.7563 -258.226 -52.0678 -337.999 27.2471Z" stroke="url(#paint4_linear_1498_11067)" stroke-opacity="0.2" stroke-width="3"/>
<path d="M-354.97 16.194C-453.957 114.647 -358.535 227.23 -275.932 294.505C-174.281 377.43 -52.2427 454.257 -12.2729 565.194C29.9865 682.297 31.1511 863.259 138.564 961.126C214.409 1030.21 366.8 1069.98 506.199 1046.69C586.968 1033.12 657.943 985.767 721.317 947.578C798.018 901.401 983.498 907.539 1029.89 847.737C1102.73 753.945 1093.35 660.196 1076.82 577.407C1061 498.243 1017.26 428.851 947.899 372.454C922.623 351.967 893.915 334.998 866.437 316.485C843.965 301.41 823.346 284.82 806.087 264.189C777.26 229.859 743.901 200.035 704.751 173.055C673.109 151.231 639.888 131.41 602.329 111.516C585.643 102.555 565.058 93.7131 541.786 83.3176C488.881 59.7182 417.929 36.7446 333.575 15.2204C234.076 -10.043 135.401 -35.3111 34.118 -57.066C-102.615 -86.368 -267.398 -70.8487 -354.97 16.194Z" stroke="url(#paint5_linear_1498_11067)" stroke-opacity="0.2" stroke-width="3"/>
<path d="M-371.726 5.2384C-475.612 108.525 -375.519 226.607 -288.953 297.227C-182.207 384.244 -54.2858 464.895 -12.1161 581.345C32.3792 704.222 14.4248 882.514 127.041 985.256C206.647 1057.71 364.887 1093.56 510.915 1069.03C587.051 1056.24 655.568 1017.99 717.887 984.119C796.868 941.035 945.663 929.137 996.661 871.369C1079.22 777.816 1093.52 679.42 1092.97 588.464C1092.47 502.315 1061.73 425.525 1001.18 362.833C979.098 340.072 953.106 320.373 926.255 300.419C904.445 284.162 882.783 267.48 862.077 248.765C826.546 216.632 784.321 189.767 734.124 166.382C694.073 147.842 652.277 131.602 607.606 115.443C587.877 108.329 564.231 101.205 537.697 92.5611C479.874 73.6651 404.979 53.493 318.45 31.1311C221.914 6.43937 123.852 -21.8729 21.6387 -51.8944C-106.544 -89.4515 -276.574 -89.6288 -371.726 5.2384Z" stroke="url(#paint6_linear_1498_11067)" stroke-opacity="0.2" stroke-width="3"/>
<path d="M-388.697 -5.81427C-497.465 102.437 -392.482 226.115 -301.752 300.047C-189.91 391.154 -55.9045 475.595 -11.9378 597.626C34.5919 726.312 -2.26221 902.03 115.759 1009.61C198.942 1085.61 362.995 1117.28 516.073 1091.56C587.375 1079.58 653.873 1050.63 715.101 1020.82C796.598 981.056 908.489 951.026 964.076 895.161C1056.39 802.108 1094.13 698.837 1109.58 599.846C1124.2 506.745 1106.47 422.688 1054.73 353.57C1035.83 328.535 1012.56 306.107 986.331 284.71C965 267.438 942.277 250.532 918.107 233.603C875.908 203.927 824.542 179.534 763.555 160.1C715.278 144.681 664.924 132.151 612.959 119.891C590.388 114.592 563.663 109.055 533.665 102.196C470.907 87.8731 392.087 70.6332 303.4 47.5643C209.792 23.1829 111.59 -7.64612 9.19887 -46.4616C-111.037 -92.1725 -285.746 -108.409 -388.697 -5.81427Z" stroke="url(#paint7_linear_1498_11067)" stroke-opacity="0.2" stroke-width="3"/>
<path d="M618.219 123.687C488.96 105.295 251.427 78.7573 -3.26245 -41.1593C-116.523 -94.5932 -294.721 -127.223 -405.672 -16.8666C-519.34 96.2191 -409.668 225.527 -314.975 302.803C-198.239 398.034 -58.149 486.267 -11.9824 613.811C36.7831 748.271 -19.19 921.318 104.034 1033.78C190.979 1113.16 360.863 1140.77 520.789 1113.9C680.715 1087.03 828.143 1011.18 930.628 918.695C1033.09 826.075 1093.65 717.902 1125.51 610.807C1190.02 393.408 1092.83 218.42 792.691 153.199C736.188 140.9 677.277 132.081 618.219 123.687Z" stroke="url(#paint8_linear_1498_11067)" stroke-opacity="0.2" stroke-width="3"/>
<path d="M-114.908 460.418C-142.344 457.916 -162.193 447.148 -168.69 417.636C-190.457 317.958 -143.435 196.445 -213.392 114.374C-249.374 72.2756 -312.721 54.0445 -387.453 55.5408C-740.691 63.0847 -957.067 275.77 -1008.39 364.586C-1061 455.59 -969.64 518.56 -896.457 551.137C-806.317 591.312 -702.787 623.314 -651.878 695.99C-598.139 772.734 -454.75 935.137 -357.572 985.138C-289.01 1020.42 -153.725 1046.26 -57.1909 1001.98C39.3436 957.705 96.3705 847.269 145.355 771.274C194.34 695.279 576.507 691.147 578.342 617.922C580.806 519.458 433.1 486.251 331.087 469.364C227.652 452.259 116.45 447.711 1.49354 453.152C-41.0586 455.264 -83.0719 463.366 -114.908 460.418Z" stroke="url(#paint9_linear_1498_11067)" stroke-opacity="0.2" stroke-width="3"/>
<path d="M-1027.47 358.254C-1083.55 455.201 -986.016 522.3 -908.135 557.074C-812.196 599.955 -701.618 633.947 -647.52 711.542C-590.303 793.364 -465.883 958.085 -362.226 1011.35C-289.1 1049.03 -149.48 1069.41 -46.4479 1022.15C45.631 979.915 102.182 878.836 151.934 807.275C203.215 733.564 544.945 721.87 552.788 649.225C563.48 548.728 439.28 504.014 349.929 475.662C260.289 447.152 158.881 432.744 50.6147 429.895C10.4992 428.858 -29.6031 433.618 -61.2106 429.113C-88.2631 425.421 -108.772 414.665 -118.52 387.95C-133.126 347.651 -138.845 305.307 -146.586 264.47C-153.128 229.611 -161.424 195.847 -179.362 165.49C-188.033 150.755 -199.776 137.139 -214.799 124.157C-255.819 89.0121 -320.541 73.297 -397.911 74.8432C-512.781 77.3442 -615.686 97.1304 -704.73 127.676C-871.64 184.799 -987.804 289.578 -1027.47 358.254Z" stroke="url(#paint10_linear_1498_11067)" stroke-opacity="0.2" stroke-width="3"/>
<path d="M-1046.74 352.005C-1106.29 454.897 -1002.76 526.208 -919.996 563.094C-818.071 608.597 -700.817 644.749 -643.158 727.093C-582.463 813.993 -476.961 981.153 -367.01 1037.77C-289.373 1077.73 -145.179 1092.68 -36.021 1042.61C51.7882 1002.33 107.812 910.487 158.198 843.568C211.959 772.054 513.489 752.835 526.733 680.905C545.838 578.289 444.823 522.359 368.32 482.457C292.156 442.834 201.048 418.189 99.4714 407.049C62.0294 402.901 23.8382 404.317 -7.77755 398.221C-34.4986 393.217 -55.904 382.437 -68.8511 358.639C-88.8013 321.953 -103.422 285.287 -120.283 250.665C-134.46 221.339 -149.999 193.508 -173.561 168.196C-184.823 156.245 -199.26 145.171 -216.656 134.438C-262.107 106.112 -328.997 93.1319 -408.634 94.5578C-520.36 96.6319 -623.258 111.193 -715.562 136.126C-875.981 179.248 -1001.55 273.837 -1046.74 352.005Z" stroke="url(#paint11_linear_1498_11067)" stroke-opacity="0.2" stroke-width="3"/>
<path d="M-1066 345.757C-1128.98 454.714 -1019.5 530.118 -931.991 569.322C-824.08 617.447 -699.913 655.794 -639.116 742.936C-574.759 834.828 -488.411 1004.39 -372.166 1064.36C-290.017 1106.61 -141.436 1116.2 -25.7803 1063.15C57.5735 1024.92 113.493 942.26 164.46 879.861C220.755 810.667 481.982 783.679 500.862 712.499C528.568 607.68 450.604 540.742 386.845 489.046C324.343 438.225 243.349 403.428 148.41 383.876C113.456 376.701 77.362 374.69 45.7893 367.123C19.3997 360.806 -2.85109 350.124 -18.8115 329.159C-44.1056 296.084 -67.6293 265.098 -93.661 236.568C-115.421 212.896 -138.07 190.792 -167.441 170.612C-181.159 161.238 -198.187 152.947 -218.059 144.22C-267.755 122.629 -336.813 112.384 -418.904 113.774C-527.568 115.75 -630.171 125.244 -726.127 144.164C-879.861 174.79 -1015.3 258.096 -1066 345.757Z" stroke="url(#paint12_linear_1498_11067)" stroke-opacity="0.2" stroke-width="3"/>
<path d="M-1085.27 339.521C-1151.71 454.421 -1036.24 534.039 -943.845 575.355C-830.084 626.308 -699.106 666.608 -634.748 758.5C-566.913 855.469 -499.483 1027.47 -376.81 1090.59C-290.098 1135.23 -136.995 1139.27 -14.9762 1083.45C63.9221 1047.26 119.975 973.825 171.05 915.874C230.114 849.036 451.089 814.401 475.267 743.692C511.943 636.499 456.525 558.929 405.696 495.355C356.587 433.748 285.841 388.593 197.593 360.751C165.312 350.463 131.129 345.11 99.5994 336.073C73.5927 328.565 50.4453 317.859 31.2345 299.691C0.173911 270.276 -31.5929 244.957 -66.9813 222.604C-96.0047 204.295 -126.134 188.088 -161.398 173.367C-177.572 166.57 -197.242 160.942 -219.673 154.55C-273.294 139.4 -345.026 132.267 -429.384 133.538C-535.038 135.293 -637.089 140.327 -736.851 152.869C-883.612 171.159 -1028.91 242.16 -1085.27 339.521Z" stroke="url(#paint13_linear_1498_11067)" stroke-opacity="0.2" stroke-width="3"/>
<path d="M-1104.53 333.272C-1174.45 454.117 -1052.99 537.947 -955.707 581.375C-835.96 634.95 -698.12 677.324 -630.625 774.014C-559.312 876.061 -511.036 1050.47 -381.833 1116.97C-290.609 1163.9 -133.119 1162.59 -4.60206 1103.79C69.8408 1069.64 126.026 1005.43 177.26 952.044C239.28 887.477 419.952 845.074 449.159 775.25C495.042 665.719 461.562 577.651 424.035 502.028C388.132 429.722 327.821 374.124 246.16 337.748C216.418 324.554 184.28 315.652 152.928 304.938C127.304 296.239 103.075 285.594 81.036 270.173C44.2603 244.541 4.28226 224.438 -40.5457 208.592C-76.7811 195.766 -114.019 185.287 -155.464 175.866C-173.909 171.562 -196.087 168.389 -221.263 164.417C-278.489 155.417 -352.977 151.725 -440.026 152.924C-542.67 154.459 -644.52 155.774 -747.974 161.161C-887.619 168.499 -1042.67 226.419 -1104.53 333.272Z" stroke="url(#paint14_linear_1498_11067)" stroke-opacity="0.2" stroke-width="3"/>
<path d="M-1123.56 327.061C-1196.95 453.849 -1069.55 541.772 -967.569 587.396C-841.836 643.593 -697.319 688.127 -626.264 789.566C-551.288 896.605 -522.167 1073.42 -386.67 1143.27C-290.934 1192.48 -128.819 1185.86 5.77211 1124.12C75.9452 1091.93 132.129 1037.15 183.471 988.216C248.497 926.041 389.052 875.784 423.237 806.723C478.565 694.891 466.733 596.167 442.508 508.496C419.575 425.453 369.884 359.326 295.098 314.575C267.845 298.355 237.618 286.109 206.494 273.84C181.202 263.828 155.941 253.367 131.075 240.693C88.3983 218.928 40.6315 203.994 -13.9245 194.495C-57.4231 187.032 -102.007 182.243 -149.345 178.281C-170.246 176.554 -194.932 175.838 -222.802 174.406C-283.55 171.229 -361.114 171.269 -450.482 172.226C-550.116 173.54 -652.169 171.758 -758.673 169.406C-892.214 166.546 -1056.42 210.678 -1123.56 327.061Z" stroke="url(#paint15_linear_1498_11067)" stroke-opacity="0.2" stroke-width="3"/>
<path d="M-1142.83 320.813C-1219.63 453.666 -1086.05 545.717 -979.191 593.454C-847.474 652.272 -696.094 698.88 -621.85 805.239C-543.397 917.356 -533.192 1096.61 -391.216 1169.72C-291.103 1221.42 -124.466 1209.25 16.6225 1144.53C82.3402 1114.39 138.996 1069.11 190.343 1024.38C258.664 964.75 358.865 906.604 397.976 838.184C462.851 724.293 472.38 614.756 461.508 515.157C451.36 421.463 412.34 344.93 344.378 291.681C319.612 272.434 291.297 256.846 260.402 243.021C235.307 231.904 208.964 221.503 181.218 211.456C132.744 193.801 76.797 183.634 12.8527 180.763C-37.7749 178.456 -89.6539 179.478 -143.018 181.182C-166.19 181.948 -193.435 183.566 -224.184 184.76C-288.506 187.284 -369.095 191.177 -460.73 192.013C-557.457 192.865 -660.3 188.688 -769.268 177.893C-897.261 165.09 -1070.17 194.937 -1142.83 320.813Z" stroke="url(#paint16_linear_1498_11067)" stroke-opacity="0.2" stroke-width="3"/>
<path d="M-136.951 183.476C-266.536 199.4 -502.779 235.67 -779.917 186.259C-903.188 164.182 -1083.73 179.111 -1162.1 314.565C-1242.37 453.362 -1102.8 549.626 -991.239 599.56C-853.722 661.085 -695.48 709.767 -617.675 820.876C-535.559 937.985 -544.509 1119.64 -396.239 1196.11C-291.614 1250.09 -120.404 1232.48 26.9962 1164.87C174.397 1097.25 296.971 985.619 371.816 869.621C446.61 753.501 476.891 633.285 479.743 521.588C485.38 294.89 345.946 151.272 39.185 166.508C-18.5716 169.357 -77.7455 176.192 -136.951 183.476Z" stroke="url(#paint17_linear_1498_11067)" stroke-opacity="0.2" stroke-width="3"/>
<path d="M782.553 238.581C786.658 238.581 789.987 241.91 789.987 246.016V633.57C789.987 637.675 786.658 641.004 782.553 641.004H452.153C448.047 641.004 444.719 637.676 444.719 633.57V606.618H449.357V633.389L449.362 633.589C449.467 635.651 451.171 637.29 453.259 637.291H781.456L781.656 637.286C783.651 637.184 785.252 635.584 785.353 633.589L785.357 633.389V247.127C785.357 245.04 783.718 243.336 781.656 243.231L781.456 243.226H738.062V238.581H782.553ZM781.456 245.177C782.533 245.178 783.406 246.05 783.406 247.127V633.389C783.406 634.466 782.533 635.339 781.456 635.339H453.259C452.182 635.339 451.309 634.466 451.309 633.389V606.618H580.31C584.415 606.617 587.745 603.288 587.745 599.182V495.091H730.627C734.733 495.091 738.062 491.762 738.062 487.656V245.177H781.456ZM687.513 593.377C681.316 593.377 679.553 597.027 679.553 599.912V600.446C679.553 603.295 681.316 607.052 687.513 607.052H688.296C694.492 607.052 696.256 603.295 696.256 600.446V599.912C696.256 597.027 694.492 593.378 688.296 593.377H687.513ZM706.311 593.377C700.114 593.377 698.351 597.027 698.351 599.912V600.446C698.351 603.295 700.114 607.052 706.311 607.052H707.094C713.29 607.052 715.054 603.295 715.054 600.446V599.912C715.053 597.027 713.29 593.378 707.094 593.377H706.311ZM625.103 600.322C625.103 602.957 625.85 607.035 632.35 607.035H632.866C639.115 607.034 640.06 602.975 640.06 600.322V593.59H636.409V600.233C636.409 601.746 636.035 603.918 632.652 603.918H632.563C629.198 603.918 628.771 601.746 628.771 600.233V593.59H625.103V600.322ZM647.534 600.108L641.694 606.838H646.003L649.85 602.53L653.643 606.838H658.076L652.253 600.072L657.826 593.59H653.606L650.027 597.704L646.431 593.59H641.783L647.534 600.108ZM664.228 596.618H669.356V606.838H673.007V596.618H678.135V593.59H664.228V596.618ZM717.736 606.838H729.506V603.722H721.404V593.59H717.736V606.838ZM732.013 606.838H735.681V600.607L742.056 606.838H746.846L739.562 599.663L746.543 593.59H741.877L735.681 599.04V593.59H732.013V606.838ZM748.445 606.838H752.113V593.59H748.445V606.838ZM754.564 596.618H759.692V606.838H763.343V596.618H768.472V593.59H754.564V596.618ZM687.904 596.404C691.643 596.404 692.445 598.416 692.445 600.054V600.304C692.445 601.907 691.625 604.007 687.904 604.007C684.254 604.007 683.363 601.907 683.363 600.304V600.054C683.363 598.416 684.201 596.404 687.904 596.404ZM706.702 596.404C710.441 596.404 711.243 598.416 711.243 600.054V600.304C711.243 601.907 710.423 604.007 706.702 604.007C703.052 604.007 702.161 601.907 702.161 600.304V600.054C702.161 598.416 702.999 596.404 706.702 596.404ZM555.862 243.226H453.259C451.104 243.226 449.358 244.973 449.357 247.127V304.567H444.719V246.016C444.719 241.91 448.047 238.581 452.153 238.581H555.862V243.226ZM555.862 304.567H451.309V250.194H469.614C471.769 250.194 473.516 248.446 473.516 246.292V245.177H555.862V304.567Z" fill="url(#paint18_linear_1498_11067)"/>
<rect x="382" y="289.103" width="220.264" height="312.273" rx="5.57631" fill="#343232"/>
<rect x="391.448" y="297.622" width="202.295" height="294.305" rx="3.25398" stroke="#F5F1D0" stroke-width="2.16932"/>
<path d="M391.809 297.984H534.261V316.062C534.261 318.458 532.318 320.4 529.922 320.4H391.809V297.984Z" fill="#F5F1D0"/>
<path d="M417.184 311.769V305.386H419.534L421.568 309.71L423.661 305.386H425.866V311.769H424.141V307.591L422.203 311.769H420.821L418.882 307.591V311.769H417.184ZM427.447 305.386H433.289V306.776H429.188V307.814H433.161V309.255H429.188V310.362H433.341V311.769H427.447V305.386ZM436.787 311.769V306.844H434.316V305.386H441.016V306.844H438.545V311.769H436.787ZM442.201 311.769V305.386H443.968V307.754H447.528V305.386H449.295V311.769H447.528V309.203H443.968V311.769H442.201ZM454.424 305.283H454.801C457.787 305.283 458.636 307.041 458.636 308.431V308.689C458.636 310.061 457.787 311.872 454.801 311.872H454.424C451.438 311.872 450.589 310.061 450.589 308.689V308.431C450.589 307.041 451.438 305.283 454.424 305.283ZM456.8 308.5C456.8 307.711 456.414 306.741 454.612 306.741C452.828 306.741 452.425 307.711 452.425 308.5V308.62C452.425 309.392 452.854 310.404 454.612 310.404C456.405 310.404 456.8 309.392 456.8 308.62V308.5ZM459.928 311.769V305.386H463.197C466.526 305.386 467.289 307.059 467.289 308.354V308.611C467.289 309.95 466.706 311.769 463.206 311.769H459.928ZM461.696 306.801V310.344H463.12C465.265 310.344 465.453 309.298 465.453 308.577V308.526C465.453 307.814 465.247 306.801 463.12 306.801H461.696ZM472.118 305.283H472.495C475.481 305.283 476.33 307.041 476.33 308.431V308.689C476.33 310.061 475.481 311.872 472.495 311.872H472.118C469.132 311.872 468.283 310.061 468.283 308.689V308.431C468.283 307.041 469.132 305.283 472.118 305.283ZM474.494 308.5C474.494 307.711 474.108 306.741 472.307 306.741C470.522 306.741 470.119 307.711 470.119 308.5V308.62C470.119 309.392 470.548 310.404 472.307 310.404C474.1 310.404 474.494 309.392 474.494 308.62V308.5ZM477.623 305.386H479.39V310.267H483.294V311.769H477.623V305.386ZM487.793 305.283H488.171C491.156 305.283 492.006 307.041 492.006 308.431V308.689C492.006 310.061 491.156 311.872 488.171 311.872H487.793C484.808 311.872 483.958 310.061 483.958 308.689V308.431C483.958 307.041 484.808 305.283 487.793 305.283ZM490.17 308.5C490.17 307.711 489.784 306.741 487.982 306.741C486.197 306.741 485.794 307.711 485.794 308.5V308.62C485.794 309.392 486.223 310.404 487.982 310.404C489.775 310.404 490.17 309.392 490.17 308.62V308.5ZM496.85 311.863H496.713C493.899 311.863 493.015 310.104 493.015 308.672V308.44C493.015 307.084 493.839 305.3 496.747 305.3H497.039C499.818 305.3 500.702 306.518 500.702 307.565V307.582H498.874C498.814 307.419 498.548 306.741 496.901 306.741C495.331 306.741 494.851 307.625 494.851 308.483V308.594C494.851 309.426 495.391 310.422 496.961 310.422C498.471 310.422 498.806 309.615 498.832 309.426H497.099V308.285H500.779V311.769H499.372C499.355 311.545 499.243 311.091 499.158 310.885C499.012 311.065 498.36 311.863 496.85 311.863ZM504.228 311.769V309.435L501.062 305.386H503.25L505.163 307.917L507.076 305.386H509.049L505.995 309.444V311.769H504.228Z" fill="#343232"/>
<circle cx="404.11" cy="308.83" r="2.54734" fill="#373333"/>
<path d="M401.464 310.602C401.98 311.371 402.822 311.902 403.792 311.998V316.782C401.055 316.673 398.674 315.184 397.326 312.991L401.464 310.602ZM410.861 313.048C409.506 315.211 407.143 316.676 404.429 316.782V311.998C405.375 311.903 406.197 311.394 406.715 310.655L410.861 313.048ZM411.11 305.032C411.724 306.16 412.073 307.454 412.073 308.83C412.073 310.153 411.748 311.399 411.177 312.497L407.028 310.101C407.198 309.712 407.293 309.282 407.293 308.83C407.293 308.325 407.176 307.848 406.967 307.424L411.11 305.032ZM401.223 307.484C401.032 307.893 400.925 308.349 400.925 308.83C400.925 309.258 401.01 309.667 401.163 310.041L397.016 312.434C396.465 311.352 396.152 310.127 396.152 308.83C396.152 307.48 396.489 306.208 397.082 305.094L401.223 307.484ZM403.792 305.662C402.874 305.752 402.072 306.235 401.551 306.938L397.404 304.544C398.765 302.419 401.107 300.984 403.792 300.877V305.662ZM404.429 300.877C407.091 300.981 409.417 302.392 410.783 304.487L406.627 306.886C406.106 306.212 405.323 305.751 404.429 305.662V300.877Z" fill="url(#paint19_radial_1498_11067)"/>
<path d="M434.882 523.872V517.122H438.338C441.858 517.122 442.666 518.891 442.666 520.261V520.533C442.666 521.949 442.049 523.872 438.347 523.872H434.882ZM436.75 518.619V522.366H438.256C440.525 522.366 440.724 521.259 440.724 520.497V520.443C440.724 519.69 440.506 518.619 438.256 518.619H436.75ZM444.016 517.122H450.194V518.592H445.858V519.69H450.058V521.214H445.858V522.384H450.249V523.872H444.016V517.122ZM455.262 523.99H454.999C451.832 523.99 451.469 522.557 451.469 521.749V521.649H453.502C453.529 521.949 453.656 522.62 455.089 522.62H455.153C456.559 522.62 456.74 522.194 456.74 521.813C456.74 521.413 456.477 521.15 455.361 521.114L454.463 521.087C452.25 521.023 451.542 520.134 451.542 519.118V519.036C451.542 517.993 452.104 517.041 454.899 517.041H455.207C458.192 517.041 458.6 518.129 458.6 519.018V519.118H456.595C456.55 518.819 456.378 518.374 455.08 518.374H454.99C453.792 518.374 453.511 518.601 453.511 518.973C453.511 519.318 453.756 519.572 454.817 519.617L455.752 519.653C458.156 519.744 458.736 520.533 458.736 521.631V521.74C458.736 522.729 458.283 523.99 455.262 523.99ZM462.001 517.122V523.872H460.132V517.122H462.001ZM467.423 523.972H467.278C464.302 523.972 463.367 522.112 463.367 520.597V520.352C463.367 518.919 464.238 517.032 467.314 517.032H467.622C470.562 517.032 471.496 518.32 471.496 519.427V519.445H469.564C469.5 519.272 469.219 518.556 467.477 518.556C465.817 518.556 465.309 519.49 465.309 520.397V520.515C465.309 521.395 465.88 522.448 467.541 522.448C469.137 522.448 469.491 521.595 469.518 521.395H467.686V520.189H471.578V523.872H470.09C470.072 523.636 469.954 523.155 469.863 522.938C469.709 523.128 469.019 523.972 467.423 523.972ZM478.99 523.872L474.961 519.499V523.872H473.138V517.122H475.061L479.008 521.468V517.122H480.822V523.872H478.99ZM487.312 523.872V518.665H484.699V517.122H491.784V518.665H489.172V523.872H487.312ZM493.037 523.872V517.122H494.906V519.626H498.671V517.122H500.54V523.872H498.671V521.159H494.906V523.872H493.037ZM504.076 517.122V523.872H502.207V517.122H504.076ZM511.593 523.872L507.565 519.499V523.872H505.742V517.122H507.665L511.611 521.468V517.122H513.426V523.872H511.593ZM516.966 523.872H515.098V517.122H516.966V519.898L520.124 517.122H522.501L518.944 520.216L522.655 523.872H520.214L516.966 520.697V523.872ZM525.339 517.122V523.872H523.47V517.122H525.339ZM532.857 523.872L528.829 519.499V523.872H527.005V517.122H528.928L532.875 521.468V517.122H534.689V523.872H532.857ZM540.117 523.972H539.972C536.996 523.972 536.062 522.112 536.062 520.597V520.352C536.062 518.919 536.932 517.032 540.008 517.032H540.316C543.256 517.032 544.19 518.32 544.19 519.427V519.445H542.258C542.194 519.272 541.913 518.556 540.171 518.556C538.511 518.556 538.003 519.49 538.003 520.397V520.515C538.003 521.395 538.575 522.448 540.235 522.448C541.832 522.448 542.185 521.595 542.213 521.395H540.38V520.189H544.272V523.872H542.784C542.766 523.636 542.648 523.155 542.557 522.938C542.403 523.128 541.714 523.972 540.117 523.972Z" fill="#F5F1D0"/>
<path fill-rule="evenodd" clip-rule="evenodd" d="M491.942 363.453C511.579 363.453 529.169 372.212 541.02 386.037L536.978 404.9L519.719 403.417C512.973 395.924 503.198 391.211 492.321 391.211C491.832 391.211 491.344 391.224 490.859 391.243L498.085 376.225L479.805 364.59C483.736 363.843 487.794 363.453 491.942 363.453Z" fill="#FFFAD1"/>
<path fill-rule="evenodd" clip-rule="evenodd" d="M547.07 394.272C553.106 404.099 556.587 415.663 556.587 428.041C556.587 438.463 554.119 448.309 549.736 457.026L530.739 460.491L525.387 444.388C527.829 439.461 529.204 433.912 529.204 428.041C529.204 421.84 527.67 415.998 524.965 410.87L525.092 411.051L542.705 412.678L547.07 394.272Z" fill="#FFF9C7"/>
<path fill-rule="evenodd" clip-rule="evenodd" d="M476.947 490.738L476.988 490.893C481.795 492.034 486.811 492.638 491.967 492.638C513.757 492.638 533.027 481.851 544.73 465.327L525.64 468.845L520.421 451.897C513.661 459.839 503.594 464.879 492.348 464.879C490.799 464.879 489.272 464.781 487.773 464.596L488.091 464.687L472.152 470.909L477.37 490.867L476.947 490.738Z" fill="#FFF8BA"/>
<path fill-rule="evenodd" clip-rule="evenodd" d="M469.846 488.747L469.244 488.563L463.501 466.547L476.567 461.569L476.881 461.659C464.508 455.923 455.851 443.526 455.52 429.071L455.371 428.913L455.366 428.975L443.497 418.685L427.539 432.938C429.409 458.798 446.5 480.44 469.897 488.949L469.846 488.747Z" fill="#FFF3AE"/>
<path fill-rule="evenodd" clip-rule="evenodd" d="M455.941 419.845L456.321 420.026C459.247 406.721 469.361 396.112 482.386 392.477L488.654 378.871L469.986 367.186C446.705 375.593 429.637 396.994 427.539 422.634L443.45 408.639L455.941 419.839L455.941 419.845Z" fill="#F5F1D0"/>
<path d="M447.962 450.759H450.104M447.962 453.719H450.104M452.197 455.986C452.197 456.212 452.107 456.429 451.946 456.589C451.785 456.749 451.567 456.839 451.34 456.839H443.627C443.399 456.839 443.181 456.749 443.021 456.589C442.86 456.429 442.77 456.212 442.77 455.986V446.599C442.77 446.372 442.86 446.155 443.021 445.995C443.181 445.835 443.399 445.745 443.627 445.745H448.414C448.774 445.745 449.391 445.745 449.111 445.745L451.303 445.745C451.797 445.745 452.197 446.145 452.197 446.639C452.197 447.858 452.197 449.333 452.197 449.512V455.986Z" stroke="#343232" stroke-width="0.853383" stroke-linecap="round" stroke-linejoin="round"/>
<path d="M444.645 453.67V453.67C445.021 454.045 445.644 453.994 445.954 453.562L446.56 452.717M444.645 450.657V450.657C445.021 451.032 445.644 450.98 445.954 450.549L446.56 449.704" stroke="#343232" stroke-width="0.853383" stroke-linecap="round" stroke-linejoin="round"/>
<rect x="445.113" y="444.739" width="4.69361" height="2.01155" rx="0.558763" fill="#FFF3AE" stroke="#343232" stroke-width="0.670515"/>
<g clip-path="url(#clip1_1498_11067)">
<path d="M514.905 377.88C515.734 377.88 516.549 378.094 517.271 378.502C517.993 378.909 518.597 379.497 519.025 380.207C519.453 380.917 519.69 381.726 519.713 382.555C519.736 383.383 519.544 384.204 519.157 384.937L522.499 388.279C522.631 388.411 522.735 388.567 522.806 388.739C522.877 388.911 522.914 389.095 522.914 389.281C522.914 389.467 522.877 389.651 522.806 389.823C522.735 389.995 522.631 390.151 522.499 390.283C522.368 390.415 522.211 390.519 522.039 390.59C521.868 390.661 521.683 390.698 521.497 390.698C521.311 390.698 521.127 390.661 520.955 390.59C520.783 390.519 520.627 390.415 520.495 390.283H520.515L517.173 386.941C516.528 387.281 515.815 387.471 515.086 387.495C514.357 387.519 513.633 387.377 512.967 387.08C512.301 386.783 511.712 386.339 511.243 385.78C510.774 385.222 510.439 384.564 510.262 383.857C510.085 383.149 510.071 382.411 510.221 381.698C510.371 380.984 510.682 380.314 511.129 379.738C511.576 379.163 512.149 378.696 512.803 378.374C513.457 378.052 514.176 377.883 514.905 377.88ZM521 389.778C521.066 389.844 521.144 389.896 521.229 389.931C521.315 389.966 521.407 389.985 521.499 389.985C521.592 389.985 521.684 389.966 521.769 389.931C521.855 389.896 521.933 389.844 521.998 389.778C522.064 389.713 522.116 389.635 522.151 389.549C522.187 389.464 522.205 389.372 522.205 389.279C522.205 389.186 522.187 389.095 522.151 389.009C522.116 388.924 522.064 388.846 521.998 388.78L518.764 385.546C518.482 385.927 518.146 386.265 517.766 386.548L521 389.778ZM514.905 386.696C515.698 386.696 516.472 386.461 517.131 386.021C517.79 385.581 518.304 384.955 518.607 384.222C518.911 383.49 518.99 382.684 518.835 381.907C518.681 381.13 518.299 380.416 517.739 379.855C517.178 379.295 516.464 378.913 515.687 378.758C514.909 378.604 514.104 378.683 513.371 378.986C512.639 379.29 512.013 379.803 511.573 380.462C511.132 381.121 510.897 381.896 510.897 382.689C510.897 383.752 511.32 384.771 512.071 385.523C512.823 386.274 513.842 386.696 514.905 386.696Z" fill="#343231"/>
<path d="M514.906 379.883C515.65 379.883 516.363 380.179 516.889 380.705C517.415 381.231 517.711 381.945 517.711 382.689C517.711 382.742 517.69 382.793 517.652 382.83C517.615 382.868 517.564 382.889 517.511 382.889C517.457 382.889 517.406 382.868 517.369 382.83C517.331 382.793 517.31 382.742 517.31 382.689C517.31 382.051 517.057 381.439 516.606 380.988C516.155 380.537 515.543 380.284 514.906 380.284C514.853 380.284 514.802 380.263 514.764 380.225C514.726 380.188 514.705 380.137 514.705 380.084C514.705 380.031 514.726 379.98 514.764 379.942C514.802 379.904 514.853 379.883 514.906 379.883Z" fill="#343231"/>
</g>
<path d="M541.142 426.14C541.769 426.14 542.377 426.263 542.949 426.504C543.501 426.738 543.998 427.072 544.425 427.5C544.853 427.927 545.187 428.424 545.421 428.976C545.662 429.548 545.785 430.156 545.785 430.783C545.785 431.529 545.613 432.24 545.274 432.899C544.952 433.526 544.479 434.082 543.909 434.508C543.497 434.814 543.25 435.315 543.25 435.847V437.118H539.03V435.843C539.03 435.313 538.783 434.812 538.371 434.506C537.72 434.021 537.206 433.374 536.881 432.633C536.717 432.255 536.602 431.856 536.543 431.448C536.481 431.022 536.479 430.583 536.539 430.146C536.606 429.637 536.758 429.146 536.994 428.685C537.223 428.234 537.524 427.824 537.89 427.468C538.254 427.112 538.67 426.817 539.125 426.597C539.59 426.372 540.085 426.227 540.596 426.17C540.78 426.15 540.962 426.14 541.142 426.14ZM541.142 425.295C540.932 425.295 540.718 425.307 540.503 425.331C538.039 425.61 536.028 427.577 535.703 430.035C535.424 432.139 536.343 434.046 537.869 435.182C538.074 435.337 538.187 435.586 538.187 435.843V437.116C538.187 437.583 538.565 437.961 539.032 437.961H543.254C543.721 437.961 544.099 437.583 544.099 437.116V435.845C544.099 435.588 544.21 435.337 544.417 435.182C545.761 434.183 546.632 432.586 546.632 430.783C546.63 427.753 544.174 425.295 541.142 425.295ZM543.254 439.228H539.03C538.797 439.228 538.609 439.038 538.609 438.806C538.609 438.575 538.799 438.385 539.03 438.385H543.252C543.485 438.385 543.673 438.575 543.673 438.806C543.673 439.038 543.485 439.228 543.254 439.228ZM542.409 440.494H539.875C539.642 440.494 539.454 440.304 539.454 440.073C539.454 439.841 539.644 439.651 539.875 439.651H542.409C542.642 439.651 542.83 439.841 542.83 440.073C542.83 440.304 542.642 440.494 542.409 440.494ZM541.142 424.873C540.908 424.873 540.72 424.683 540.72 424.452V423.185C540.72 422.952 540.91 422.764 541.142 422.764C541.374 422.764 541.564 422.954 541.564 423.185V424.452C541.564 424.683 541.376 424.873 541.142 424.873ZM544.309 425.72C544.237 425.72 544.164 425.703 544.099 425.663C543.897 425.546 543.828 425.289 543.944 425.087L544.578 423.991C544.694 423.789 544.952 423.72 545.154 423.836C545.355 423.953 545.425 424.21 545.308 424.412L544.675 425.509C544.595 425.645 544.455 425.72 544.309 425.72ZM546.626 428.04C546.48 428.04 546.339 427.965 546.26 427.828C546.143 427.626 546.212 427.367 546.414 427.252L547.511 426.619C547.713 426.502 547.972 426.571 548.087 426.773C548.203 426.975 548.134 427.234 547.932 427.349L546.836 427.983C546.771 428.02 546.699 428.04 546.626 428.04ZM537.975 425.72C537.829 425.72 537.688 425.645 537.609 425.509L536.976 424.412C536.859 424.21 536.929 423.951 537.13 423.836C537.332 423.72 537.592 423.789 537.706 423.991L538.34 425.087C538.456 425.289 538.387 425.548 538.185 425.663C538.12 425.703 538.047 425.72 537.975 425.72ZM535.658 428.04C535.587 428.04 535.513 428.022 535.448 427.983L534.352 427.349C534.15 427.232 534.081 426.975 534.197 426.773C534.314 426.571 534.571 426.502 534.773 426.619L535.87 427.252C536.072 427.369 536.141 427.626 536.024 427.828C535.945 427.963 535.802 428.04 535.658 428.04Z" fill="#343232"/>
<path d="M541.14 437.961C540.907 437.961 540.719 437.771 540.719 437.54V433.987L542.741 431.965C542.906 431.8 543.173 431.8 543.339 431.965C543.503 432.129 543.503 432.396 543.339 432.562L541.562 434.339V437.542C541.562 437.771 541.374 437.961 541.14 437.961Z" fill="#343232"/>
<path d="M541.139 434.583C541.046 434.583 540.953 434.553 540.876 434.49L538.764 432.802C538.582 432.655 538.552 432.39 538.699 432.208C538.845 432.026 539.11 431.996 539.292 432.143L541.404 433.831C541.586 433.978 541.616 434.243 541.469 434.425C541.384 434.53 541.261 434.583 541.139 434.583Z" fill="#343232"/>
<path d="M507.296 481.536L503.473 477.697L507.157 473.997C507.713 473.439 507.713 472.566 507.157 472.008L504.967 469.809C504.412 469.251 503.543 469.251 502.987 469.809L499.303 473.509L495.481 469.669C494.925 469.111 494.056 469.111 493.5 469.669L491.276 471.903C490.72 472.462 490.72 473.334 491.276 473.893L495.099 477.732L491.936 480.908C491.728 481.117 491.415 482.479 491.033 484.887V484.922C491.033 485.201 491.137 485.48 491.311 485.69C491.485 485.899 491.798 486.004 492.075 485.969H492.11C494.543 485.585 495.898 485.271 496.141 485.027L499.303 481.85L503.126 485.69C503.682 486.248 504.551 486.248 505.106 485.69L507.33 483.456C507.852 482.967 507.852 482.06 507.296 481.536ZM503.585 470.472C503.845 470.211 504.266 470.211 504.493 470.472L506.566 472.555C506.826 472.815 506.826 473.238 506.566 473.466L505.53 474.507L502.549 471.481L503.585 470.472ZM494.463 475.785L496.078 474.162C496.207 474.033 496.207 473.838 496.078 473.708C495.948 473.578 495.755 473.578 495.625 473.708L494.01 475.331L493.203 474.519L494.818 472.897C494.947 472.767 494.947 472.573 494.818 472.443C494.689 472.313 494.495 472.313 494.366 472.443L492.751 474.065L492.072 473.384C491.814 473.124 491.814 472.735 492.072 472.475L494.139 470.399C494.398 470.139 494.786 470.139 495.044 470.399L498.597 473.968L495.625 476.953L494.463 475.785ZM492.041 485.306C491.867 485.306 491.728 485.166 491.728 484.992C491.937 483.665 492.214 482.13 492.423 481.536L495.481 484.608C494.89 484.817 493.396 485.096 492.041 485.306ZM496.192 483.791L493.19 480.775L501.674 472.253L504.676 475.269L496.192 483.791ZM506.474 482.886L504.47 484.899C504.22 485.151 503.844 485.151 503.594 484.899L502.717 484.018L504.282 482.446C504.408 482.32 504.408 482.132 504.282 482.006C504.157 481.88 503.969 481.88 503.844 482.006L502.279 483.578L501.308 482.603L502.874 481.031C502.999 480.905 502.999 480.717 502.874 480.591C502.748 480.465 502.56 480.465 502.435 480.591L500.87 482.163L500.181 481.471L503.061 478.578L506.505 482.037C506.724 482.258 506.724 482.635 506.474 482.886Z" fill="#343232"/>
<circle cx="456.365" cy="384.849" r="3.40005" stroke="#343232" stroke-width="0.726727"/>
<path d="M461.206 389.713C459.911 388.429 457.84 388.402 456.498 389.61C455.156 388.402 453.086 388.429 451.79 389.713C451.473 390.025 451.221 390.398 451.049 390.809C450.878 391.22 450.789 391.661 450.789 392.106C450.789 392.552 450.878 392.993 451.049 393.404C451.221 393.815 451.473 394.187 451.79 394.5L455.735 398.405C455.938 398.606 456.212 398.718 456.498 398.718C456.784 398.718 457.058 398.606 457.262 398.405L461.206 394.5C461.523 394.187 461.775 393.815 461.947 393.404C462.119 392.993 462.208 392.552 462.208 392.106C462.208 391.661 462.119 391.22 461.947 390.809C461.775 390.398 461.523 390.025 461.206 389.713ZM460.697 393.996L456.753 397.901C456.685 397.968 456.594 398.005 456.499 398.005C456.403 398.005 456.312 397.968 456.244 397.901L452.3 393.996C452.05 393.749 451.851 393.455 451.715 393.13C451.58 392.806 451.51 392.458 451.51 392.106C451.51 391.755 451.58 391.407 451.715 391.082C451.851 390.758 452.05 390.464 452.3 390.216C453.315 389.212 454.946 389.177 456.014 390.137L456.498 390.573L456.982 390.137C458.05 389.177 459.682 389.212 460.697 390.216C460.947 390.464 461.146 390.758 461.281 391.082C461.417 391.407 461.487 391.755 461.487 392.106C461.487 392.458 461.417 392.806 461.281 393.13C461.146 393.455 460.947 393.749 460.697 393.996Z" fill="#343232"/>
<path d="M454.091 390.511L454.09 390.511C453.688 390.511 453.302 390.671 453.018 390.956C452.734 391.24 452.574 391.626 452.574 392.027C452.574 392.075 452.593 392.12 452.626 392.154C452.66 392.187 452.705 392.206 452.753 392.206C452.8 392.206 452.845 392.187 452.879 392.154C452.912 392.12 452.931 392.075 452.931 392.027V392.027C452.931 391.72 453.053 391.425 453.271 391.207C453.488 390.99 453.783 390.868 454.091 390.868H454.091C454.138 390.868 454.184 390.849 454.217 390.815C454.251 390.782 454.269 390.737 454.269 390.689C454.269 390.642 454.251 390.596 454.217 390.563C454.184 390.53 454.138 390.511 454.091 390.511Z" fill="#343232"/>
<rect x="561.062" y="176.645" width="220.264" height="312.273" rx="5.57631" fill="#383748"/>
<path d="M611.087 411.515C607.776 411.515 607.395 409.437 607.395 408.095V404.665H609.264V408.049C609.264 408.82 609.481 409.927 611.196 409.927H611.241C612.965 409.927 613.156 408.82 613.156 408.049V404.665H615.016V408.095C615.016 409.446 614.535 411.515 611.35 411.515H611.087ZM620.157 411.533H619.894C616.727 411.533 616.364 410.1 616.364 409.292V409.192H618.397C618.424 409.492 618.551 410.163 619.984 410.163H620.048C621.454 410.163 621.635 409.737 621.635 409.356C621.635 408.956 621.372 408.693 620.256 408.657L619.358 408.63C617.145 408.566 616.437 407.677 616.437 406.661V406.579C616.437 405.536 616.999 404.584 619.794 404.584H620.102C623.087 404.584 623.495 405.672 623.495 406.561V406.661H621.49C621.445 406.362 621.273 405.917 619.975 405.917H619.884C618.687 405.917 618.406 406.144 618.406 406.516C618.406 406.861 618.651 407.115 619.712 407.16L620.647 407.196C623.051 407.287 623.631 408.076 623.631 409.174V409.283C623.631 410.272 623.178 411.533 620.157 411.533ZM625.027 404.665H631.205V406.135H626.868V407.233H631.069V408.757H626.868V409.927H631.259V411.415H625.027V404.665ZM634.621 406.153V407.587H637.225C637.987 407.587 638.196 407.26 638.196 406.87V406.852C638.196 406.471 637.987 406.153 637.225 406.153H634.621ZM638.731 408.167C639.647 408.376 640.201 408.929 640.201 409.918V410.617C640.201 411.125 640.255 411.261 640.31 411.37V411.415H638.377C638.35 411.37 638.314 411.243 638.314 410.943V410.39C638.314 409.519 637.996 409.12 637.053 409.12H634.621V411.415H632.752V404.665H637.298C639.865 404.665 640.155 405.736 640.155 406.471V406.561C640.155 407.405 639.575 407.977 638.731 408.167ZM646.992 411.524C644.37 411.524 643.816 409.673 643.816 408.575V408.521H645.749C645.776 408.993 645.966 409.927 647.119 409.927H647.155C648.343 409.927 648.661 409.138 648.661 408.276V404.665H650.53V408.276C650.53 409.501 650.058 411.524 647.291 411.524H646.992ZM655.911 404.556H656.31C659.468 404.556 660.366 406.416 660.366 407.886V408.158C660.366 409.61 659.468 411.524 656.31 411.524H655.911C652.754 411.524 651.856 409.61 651.856 408.158V407.886C651.856 406.416 652.754 404.556 655.911 404.556ZM658.424 407.958C658.424 407.124 658.016 406.099 656.111 406.099C654.224 406.099 653.797 407.124 653.797 407.958V408.085C653.797 408.902 654.251 409.973 656.111 409.973C658.007 409.973 658.424 408.902 658.424 408.085V407.958ZM665.38 411.515C662.068 411.515 661.687 409.437 661.687 408.095V404.665H663.556V408.049C663.556 408.82 663.774 409.927 665.489 409.927H665.534C667.258 409.927 667.448 408.82 667.448 408.049V404.665H669.308V408.095C669.308 409.446 668.827 411.515 665.643 411.515H665.38ZM672.798 406.153V407.587H675.402C676.164 407.587 676.372 407.26 676.372 406.87V406.852C676.372 406.471 676.164 406.153 675.402 406.153H672.798ZM676.908 408.167C677.824 408.376 678.377 408.929 678.377 409.918V410.617C678.377 411.125 678.432 411.261 678.486 411.37V411.415H676.554C676.527 411.37 676.49 411.243 676.49 410.943V410.39C676.49 409.519 676.173 409.12 675.229 409.12H672.798V411.415H670.929V404.665H675.474C678.042 404.665 678.332 405.736 678.332 406.471V406.561C678.332 407.405 677.751 407.977 676.908 408.167ZM685.685 411.415L681.657 407.042V411.415H679.833V404.665H681.756L685.703 409.011V404.665H687.517V411.415H685.685ZM689.189 404.665H695.367V406.135H691.031V407.233H695.231V408.757H691.031V409.927H695.422V411.415H689.189V404.665ZM699.409 411.415V408.947L696.062 404.665H698.375L700.398 407.342L702.421 404.665H704.508L701.278 408.956V411.415H699.409ZM707.945 411.415V404.665H710.431L712.581 409.238L714.795 404.665H717.126V411.415H715.303V406.997L713.252 411.415H711.792L709.741 406.997V411.415H707.945ZM723.507 408.775L722.282 406.026L721.093 408.775H723.507ZM724.686 411.415L724.133 410.163H720.486L719.941 411.415H718.063L721.057 404.665H723.561L726.691 411.415H724.686ZM732.195 409.256H729.491V411.415H727.622V404.665H732.195C734.327 404.665 734.989 405.6 734.989 406.906V407.006C734.989 408.285 734.309 409.256 732.195 409.256ZM729.491 406.171V407.75H732.059C732.739 407.75 733.048 407.459 733.048 406.979V406.942C733.048 406.471 732.739 406.171 732.059 406.171H729.491Z" fill="white"/>
<rect x="570.51" y="185.165" width="202.295" height="294.305" rx="3.25398" stroke="#FF86BA" stroke-width="2.16932"/>
<path d="M570.875 185.526H713.327V203.604C713.327 206 711.385 207.943 708.988 207.943H570.875V185.526Z" fill="#FF86BA"/>
<path d="M596.25 199.515V193.132H599.519C602.848 193.132 603.611 194.805 603.611 196.101V196.358C603.611 197.696 603.028 199.515 599.527 199.515H596.25ZM598.018 194.548V198.091H599.442C601.586 198.091 601.775 197.044 601.775 196.324V196.272C601.775 195.56 601.569 194.548 599.442 194.548H598.018ZM604.888 193.132H610.73V194.522H606.63V195.56H610.602V197.001H606.63V198.108H610.782V199.515H604.888V193.132ZM612.194 193.132H618.01V194.548H613.952V195.689H617.89V197.147H613.952V199.515H612.194V193.132ZM621.149 193.132V199.515H619.382V193.132H621.149ZM628.258 199.515L624.449 195.38V199.515H622.725V193.132H624.544L628.275 197.242V193.132H629.991V199.515H628.258ZM633.339 193.132V199.515H631.572V193.132H633.339ZM636.991 199.515V194.591H634.52V193.132H641.22V194.591H638.75V199.515H636.991ZM644.172 193.132V199.515H642.405V193.132H644.172ZM649.299 193.029H649.677C652.662 193.029 653.512 194.788 653.512 196.178V196.435C653.512 197.808 652.662 199.618 649.677 199.618H649.299C646.314 199.618 645.464 197.808 645.464 196.435V196.178C645.464 194.788 646.314 193.029 649.299 193.029ZM651.676 196.247C651.676 195.457 651.29 194.488 649.488 194.488C647.704 194.488 647.3 195.457 647.3 196.247V196.367C647.3 197.139 647.729 198.151 649.488 198.151C651.281 198.151 651.676 197.139 651.676 196.367V196.247ZM660.338 199.515L656.529 195.38V199.515H654.804V193.132H656.623L660.355 197.242V193.132H662.071V199.515H660.338Z" fill="#383748"/>
<ellipse cx="582.96" cy="196.683" rx="2.54603" ry="2.54777" fill="#FFD3E6"/>
<path d="M580.314 198.456C580.83 199.225 581.672 199.755 582.643 199.851V204.636C579.907 204.529 577.527 203.04 576.179 200.846L580.314 198.456ZM589.707 200.902C588.353 203.065 585.992 204.529 583.279 204.636V199.851C584.225 199.756 585.046 199.246 585.563 198.507L589.707 200.902ZM589.955 192.886C590.568 194.015 590.917 195.308 590.917 196.683C590.917 198.005 590.592 199.251 590.022 200.348L585.876 197.953C586.045 197.563 586.141 197.135 586.141 196.683C586.141 196.179 586.023 195.703 585.814 195.279L589.955 192.886ZM580.074 195.336C579.883 195.745 579.776 196.202 579.776 196.683C579.776 197.112 579.861 197.521 580.015 197.894L575.868 200.29C575.317 199.207 575.004 197.982 575.004 196.683C575.004 195.332 575.342 194.06 575.936 192.945L580.074 195.336ZM582.643 193.514C581.724 193.605 580.923 194.087 580.402 194.791L576.257 192.396C577.617 190.27 579.959 188.835 582.643 188.729V193.514ZM583.279 188.729C585.94 188.834 588.263 190.245 589.629 192.34L585.476 194.74C584.955 194.066 584.173 193.604 583.279 193.514V188.729Z" fill="#FFD3E6"/>
<path fill-rule="evenodd" clip-rule="evenodd" d="M590.925 196.665C590.925 195.29 590.576 193.998 589.964 192.87L585.828 195.258C586.037 195.683 586.155 196.16 586.155 196.666C586.155 197.119 586.059 197.549 585.889 197.939L590.029 200.331C590.6 199.233 590.925 197.987 590.925 196.665Z" fill="#B7336C"/>
<path d="M624.697 297.731C628.879 297.731 632.619 298.319 635.276 299.237C636.61 299.698 637.613 300.222 638.262 300.752C638.918 301.288 639.083 301.716 639.083 302.002C639.083 302.288 638.918 302.716 638.262 303.252C637.613 303.781 636.61 304.306 635.276 304.767C632.619 305.685 628.879 306.272 624.697 306.272C620.516 306.272 616.776 305.685 614.118 304.767C612.784 304.306 611.781 303.781 611.133 303.252C610.477 302.716 610.311 302.288 610.311 302.002C610.311 301.716 610.477 301.288 611.133 300.752C611.781 300.222 612.784 299.698 614.118 299.237C616.776 298.319 620.516 297.731 624.697 297.731Z" stroke="#FF86BA" stroke-width="2.13759"/>
<path d="M708.397 364.768C714.898 364.768 720.739 365.68 724.916 367.123C727.01 367.846 728.628 368.683 729.701 369.56C730.782 370.443 731.182 371.253 731.183 371.939C731.183 372.626 730.782 373.436 729.701 374.319C728.628 375.196 727.01 376.034 724.916 376.757C720.739 378.2 714.898 379.111 708.397 379.111C701.897 379.111 696.056 378.2 691.879 376.757C689.785 376.034 688.167 375.196 687.094 374.319C686.012 373.436 685.611 372.626 685.611 371.939C685.611 371.253 686.013 370.443 687.094 369.56C688.167 368.683 689.785 367.846 691.879 367.123C696.056 365.68 701.897 364.768 708.397 364.768Z" stroke="#FF86BA" stroke-width="2.13759"/>
<path d="M707.536 290.169C723.953 290.169 737.261 303.478 737.261 319.895C737.261 322.931 736.996 325.367 736.265 327.838C735.53 330.317 734.31 332.884 732.338 336.164C728.366 342.768 721.508 352.01 709.821 368.952C708.751 370.497 706.501 370.545 705.357 369.097L705.25 368.952C693.563 352.01 686.705 342.768 682.733 336.164C680.761 332.884 679.541 330.317 678.807 327.838C678.075 325.367 677.811 322.931 677.811 319.895C677.811 303.478 691.12 290.169 707.536 290.169Z" fill="#383748" stroke="#FF86BA" stroke-width="2.13759"/>
<path d="M624.697 251.135C635.125 251.135 643.579 259.59 643.579 270.018C643.579 271.962 643.41 273.502 642.949 275.058C642.486 276.622 641.712 278.255 640.443 280.365C637.878 284.63 633.452 290.593 625.868 301.587C625.338 302.353 624.24 302.401 623.639 301.731L623.525 301.587C615.941 290.593 611.515 284.63 608.95 280.365C607.681 278.254 606.908 276.622 606.444 275.058C605.984 273.502 605.814 271.962 605.814 270.018C605.814 259.59 614.269 251.135 624.697 251.135Z" fill="#383748" stroke="#FF86BA" stroke-width="2.13759"/>
<path d="M625.451 311.332C625.034 310.914 624.357 310.914 623.94 311.332L617.138 318.133C616.72 318.551 616.72 319.228 617.138 319.645C617.555 320.062 618.232 320.062 618.649 319.645L624.695 313.599L630.741 319.645C631.159 320.062 631.835 320.062 632.253 319.645C632.67 319.228 632.67 318.551 632.253 318.133L625.451 311.332ZM645.514 326.601C646.104 326.601 646.582 326.123 646.582 325.533C646.582 324.942 646.104 324.464 645.514 324.464V326.601ZM624.695 312.087H623.627V322.063H624.695H625.764V312.087H624.695ZM628.165 325.533V326.601H645.514V325.533V324.464H628.165V325.533ZM624.695 322.063H623.627C623.627 324.569 625.658 326.601 628.165 326.601V325.533V324.464C626.839 324.464 625.764 323.389 625.764 322.063H624.695Z" fill="#FF86BA"/>
<path d="M649.961 324.777C649.544 325.194 649.544 325.871 649.961 326.288L656.763 333.09C657.181 333.508 657.857 333.508 658.275 333.09C658.692 332.673 658.692 331.996 658.275 331.579L652.229 325.533L658.275 319.487C658.692 319.069 658.692 318.393 658.275 317.975C657.857 317.558 657.181 317.558 656.763 317.975L649.961 324.777ZM628.164 346.15C627.574 346.15 627.095 346.628 627.095 347.218C627.095 347.809 627.574 348.287 628.164 348.287V346.15ZM650.717 325.533V326.602H667.198V325.533V324.464H650.717V325.533ZM670.668 329.002H669.599V343.749H670.668H671.737V329.002H670.668ZM667.198 347.218V346.15H628.164V347.218V348.287H667.198V347.218ZM670.668 343.749H669.599C669.599 345.075 668.524 346.15 667.198 346.15V347.218V348.287C669.705 348.287 671.737 346.255 671.737 343.749H670.668ZM667.198 325.533V326.602C668.524 326.602 669.599 327.676 669.599 329.002H670.668H671.737C671.737 326.496 669.705 324.464 667.198 324.464V325.533Z" fill="#FF86BA"/>
<path d="M623.343 346.463C623.76 346.88 623.76 347.557 623.343 347.974L616.541 354.776C616.124 355.193 615.447 355.193 615.03 354.776C614.612 354.358 614.612 353.682 615.03 353.264L621.076 347.218L615.03 341.172C614.612 340.755 614.612 340.078 615.03 339.661C615.447 339.243 616.124 339.243 616.541 339.661L623.343 346.463ZM681.945 371.305C682.536 371.305 683.014 371.783 683.014 372.374C683.014 372.964 682.536 373.442 681.945 373.442V371.305ZM622.587 347.218V348.287H610.816V347.218V346.149H622.587V347.218ZM607.347 350.688H608.415V368.904H607.347H606.278V350.688H607.347ZM610.816 372.374V371.305H681.945V372.374V373.442H610.816V372.374ZM607.347 368.904H608.415C608.415 370.23 609.49 371.305 610.816 371.305V372.374V373.442C608.31 373.442 606.278 371.41 606.278 368.904H607.347ZM610.816 347.218V348.287C609.49 348.287 608.415 349.362 608.415 350.688H607.347H606.278C606.278 348.181 608.31 346.149 610.816 346.149V347.218Z" fill="#FF86BA"/>
<path d="M634.767 270.844C633.927 275.046 630.759 279.002 626.313 279.886C624.145 280.318 621.896 280.055 619.887 279.134C617.877 278.213 616.209 276.682 615.12 274.758C614.031 272.834 613.577 270.616 613.823 268.419C614.068 266.222 615 264.158 616.487 262.522C619.535 259.164 624.683 258.239 628.885 259.92" stroke="#FF86BA" stroke-width="2.52096" stroke-linecap="round" stroke-linejoin="round"/>
<path d="M620.477 269.163L624.678 273.365L634.762 262.441" stroke="#FF86BA" stroke-width="2.52096" stroke-linecap="round" stroke-linejoin="round"/>
<circle cx="707.533" cy="319.027" r="21.0506" stroke="#FF86BA" stroke-width="2.13759"/>
<path d="M719.244 331.821C719.244 327.93 714.195 324.774 707.968 324.774C701.74 324.774 696.691 327.93 696.691 331.821M707.968 320.545C706.099 320.545 704.306 319.802 702.984 318.481C701.663 317.159 700.92 315.366 700.92 313.497C700.92 311.628 701.663 309.835 702.984 308.513C704.306 307.192 706.099 306.449 707.968 306.449C709.837 306.449 711.63 307.192 712.952 308.513C714.273 309.835 715.016 311.628 715.016 313.497C715.016 315.366 714.273 317.159 712.952 318.481C711.63 319.802 709.837 320.545 707.968 320.545Z" stroke="#FF86BA" stroke-width="2.13759" stroke-linecap="round" stroke-linejoin="round"/>
<rect x="54" y="238" width="172.445" height="33.3765" rx="4.17206" fill="#E3AF75"/>
<path d="M76.6405 262.539C70.1871 262.539 69.4445 258.49 69.4445 255.873V249.19H73.0867V255.785C73.0867 257.288 73.511 259.445 76.8527 259.445H76.9411C80.3004 259.445 80.6717 257.288 80.6717 255.785V249.19H84.2963V255.873C84.2963 258.508 83.3592 262.539 77.1533 262.539H76.6405ZM97.7829 262.344L94.0169 258.066L90.1979 262.344H85.9191L91.7184 255.661L86.0076 249.19H90.6222L94.1937 253.274L97.7475 249.19H101.938L96.4038 255.626L102.185 262.344H97.7829ZM113.386 262.344V252.196H108.294V249.19H122.103V252.196H117.011V262.344H113.386ZM131.414 248.978H132.192C138.345 248.978 140.095 252.602 140.095 255.466V255.997C140.095 258.826 138.345 262.556 132.192 262.556H131.414C125.261 262.556 123.511 258.826 123.511 255.997V255.466C123.511 252.602 125.261 248.978 131.414 248.978ZM136.312 255.608C136.312 253.981 135.516 251.983 131.803 251.983C128.126 251.983 127.295 253.981 127.295 255.608V255.855C127.295 257.447 128.179 259.533 131.803 259.533C135.498 259.533 136.312 257.447 136.312 255.855V255.608ZM150.079 248.978H150.857C157.01 248.978 158.76 252.602 158.76 255.466V255.997C158.76 258.826 157.01 262.556 150.857 262.556H150.079C143.926 262.556 142.176 258.826 142.176 255.997V255.466C142.176 252.602 143.926 248.978 150.079 248.978ZM154.977 255.608C154.977 253.981 154.181 251.983 150.468 251.983C146.79 251.983 145.959 253.981 145.959 255.608V255.855C145.959 257.447 146.844 259.533 150.468 259.533C154.163 259.533 154.977 257.447 154.977 255.855V255.608ZM161.424 249.19H165.066V259.25H173.111V262.344H161.424V249.19ZM179.242 262.344H175.6V249.19H179.242V254.6L185.395 249.19H190.027L183.096 255.219L190.328 262.344H185.572L179.242 256.156V262.344ZM195.559 249.19V262.344H191.916V249.19H195.559ZM203.084 262.344V252.196H197.992V249.19H211.801V252.196H206.709V262.344H203.084Z" fill="#1E1E1E"/>
</g>
<defs>
<linearGradient id="paint0_linear_1498_11067" x1="372.691" y1="-130.271" x2="549.708" y2="923.32" gradientUnits="userSpaceOnUse">
<stop stop-color="#E0AB72"/>
<stop offset="1" stop-color="#DF9E57"/>
</linearGradient>
<linearGradient id="paint1_linear_1498_11067" x1="348.882" y1="-126.405" x2="529.7" y2="949.811" gradientUnits="userSpaceOnUse">
<stop stop-color="#E1AC73"/>
<stop offset="1" stop-color="#C98F50"/>
</linearGradient>
<linearGradient id="paint2_linear_1498_11067" x1="325.606" y1="-125.491" x2="510.715" y2="976.263" gradientUnits="userSpaceOnUse">
<stop stop-color="#E1AC73"/>
<stop offset="1" stop-color="#C98F50"/>
</linearGradient>
<linearGradient id="paint3_linear_1498_11067" x1="304.192" y1="-127.504" x2="494.019" y2="1002.33" gradientUnits="userSpaceOnUse">
<stop stop-color="#E1AC73"/>
<stop offset="1" stop-color="#C98F50"/>
</linearGradient>
<linearGradient id="paint4_linear_1498_11067" x1="286.176" y1="-132.353" x2="481.094" y2="1027.78" gradientUnits="userSpaceOnUse">
<stop stop-color="#E1AC73"/>
<stop offset="1" stop-color="#C98F50"/>
</linearGradient>
<linearGradient id="paint5_linear_1498_11067" x1="273.673" y1="-140.111" x2="473.98" y2="1052.1" gradientUnits="userSpaceOnUse">
<stop stop-color="#E1AC73"/>
<stop offset="1" stop-color="#C98F50"/>
</linearGradient>
<linearGradient id="paint6_linear_1498_11067" x1="271.244" y1="-150.993" x2="477.176" y2="1074.7" gradientUnits="userSpaceOnUse">
<stop stop-color="#E1AC73"/>
<stop offset="1" stop-color="#C98F50"/>
</linearGradient>
<linearGradient id="paint7_linear_1498_11067" x1="274.685" y1="-163.904" x2="486.456" y2="1096.54" gradientUnits="userSpaceOnUse">
<stop stop-color="#E1AC73"/>
<stop offset="1" stop-color="#C98F50"/>
</linearGradient>
<linearGradient id="paint8_linear_1498_11067" x1="281.916" y1="-178.197" x2="499.602" y2="1117.46" gradientUnits="userSpaceOnUse">
<stop stop-color="#E1AC73"/>
<stop offset="1" stop-color="#C98F50"/>
</linearGradient>
<linearGradient id="paint9_linear_1498_11067" x1="-440.168" y1="2.26527" x2="5.26066" y2="973.338" gradientUnits="userSpaceOnUse">
<stop stop-color="#E0AB72"/>
<stop offset="1" stop-color="#DF9E57"/>
</linearGradient>
<linearGradient id="paint10_linear_1498_11067" x1="-462.15" y1="12.2024" x2="-7.15623" y2="1004.13" gradientUnits="userSpaceOnUse">
<stop stop-color="#E1AC73"/>
<stop offset="1" stop-color="#C98F50"/>
</linearGradient>
<linearGradient id="paint11_linear_1498_11067" x1="-484.381" y1="19.1487" x2="-18.5905" y2="1034.61" gradientUnits="userSpaceOnUse">
<stop stop-color="#E1AC73"/>
<stop offset="1" stop-color="#C98F50"/>
</linearGradient>
<linearGradient id="paint12_linear_1498_11067" x1="-505.579" y1="22.7854" x2="-27.9167" y2="1064.13" gradientUnits="userSpaceOnUse">
<stop stop-color="#E1AC73"/>
<stop offset="1" stop-color="#C98F50"/>
</linearGradient>
<linearGradient id="paint13_linear_1498_11067" x1="-524.236" y1="22.7977" x2="-33.765" y2="1092.07" gradientUnits="userSpaceOnUse">
<stop stop-color="#E1AC73"/>
<stop offset="1" stop-color="#C98F50"/>
</linearGradient>
<linearGradient id="paint14_linear_1498_11067" x1="-538.332" y1="18.5665" x2="-34.2975" y2="1117.41" gradientUnits="userSpaceOnUse">
<stop stop-color="#E1AC73"/>
<stop offset="1" stop-color="#C98F50"/>
</linearGradient>
<linearGradient id="paint15_linear_1498_11067" x1="-543.512" y1="8.69293" x2="-25.3247" y2="1138.39" gradientUnits="userSpaceOnUse">
<stop stop-color="#E1AC73"/>
<stop offset="1" stop-color="#C98F50"/>
</linearGradient>
<linearGradient id="paint16_linear_1498_11067" x1="-543.553" y1="-4.66848" x2="-10.6756" y2="1157.05" gradientUnits="userSpaceOnUse">
<stop stop-color="#E1AC73"/>
<stop offset="1" stop-color="#C98F50"/>
</linearGradient>
<linearGradient id="paint17_linear_1498_11067" x1="-540.296" y1="-20.3518" x2="7.46852" y2="1173.82" gradientUnits="userSpaceOnUse">
<stop stop-color="#E1AC73"/>
<stop offset="1" stop-color="#C98F50"/>
</linearGradient>
<linearGradient id="paint18_linear_1498_11067" x1="617.353" y1="238.581" x2="617.353" y2="641.004" gradientUnits="userSpaceOnUse">
<stop stop-color="#CA9050"/>
<stop offset="0.505" stop-color="#BC8344"/>
<stop offset="1" stop-color="#E2AE75"/>
</linearGradient>
<radialGradient id="paint19_radial_1498_11067" cx="0" cy="0" r="1" gradientUnits="userSpaceOnUse" gradientTransform="translate(404.113 308.83) rotate(90) scale(7.9521 7.96041)">
<stop stop-color="#373333"/>
<stop offset="0.37" stop-color="#494444"/>
<stop offset="1" stop-color="#828282"/>
</radialGradient>
<clipPath id="clip0_1498_11067">
<rect width="956" height="814" fill="white"/>
</clipPath>
<clipPath id="clip1_1498_11067">
<rect width="12.8239" height="12.8239" fill="white" transform="matrix(-1 0 0 1 522.922 377.88)"/>
</clipPath>
</defs>
</svg>
